<svg xmlns="http://www.w3.org/2000/svg" viewBox="0 0 5.85 10.55"><defs><style>.cls-1{fill:#f9fcfe;}</style></defs><title>appdownload-icon</title><g id="Layer_2" data-name="Layer 2"><g id="Layer_1-2" data-name="Layer 1"><path class="cls-1" d="M4.75.77H3.14V0H2.7V5.26l-1-1-.31.31L2.92,6.1,4.47,4.55l-.31-.31-1,1V2.85H5.41V8.42h-5V2.85H2.29V2.41H.44V1.87a.66.66,0,0,1,.66-.66H2.29V.77H1.1A1.1,1.1,0,0,0,0,1.87V9.45a1.1,1.1,0,0,0,1.1,1.1H4.75a1.1,1.1,0,0,0,1.1-1.1V1.87A1.1,1.1,0,0,0,4.75.77ZM3.14,2.41V1.21h1.6a.66.66,0,0,1,.66.66v.55Zm1.6,7.69H1.1a.66.66,0,0,1-.66-.66V8.86h5v.59A.66.66,0,0,1,4.75,10.11Zm-1-.63a.29.29,0,0,1-.29.29H2.59a.29.29,0,0,1,0-.59h.82A.29.29,0,0,1,3.71,9.48Z"/></g></g></svg>