<?xml version="1.0" encoding="utf-8"?>
<!-- Generator: Adobe Illustrator 21.0.2, SVG Export Plug-In . SVG Version: 6.00 Build 0)  -->
<svg version="1.1" id="Layer_1" xmlns="http://www.w3.org/2000/svg" xmlns:xlink="http://www.w3.org/1999/xlink" x="0px" y="0px"
	 viewBox="0 0 115.7 24" style="enable-background:new 0 0 115.7 24;" xml:space="preserve">
<style type="text/css">
	.st0{display:none;}
	.st1{display:inline;fill:#B69136;}
	.st2{display:inline;}
	.st3{fill:#C78F3D;}
	.st4{fill:#B69136;}
	.st5{fill:#74CFEA;}
	.st6{fill:#FFFFFF;}
	.st7{fill:#EA7580;}
</style>
<g id="Layer_1_1_">
	<g id="Layer_7" class="st0">
		<path class="st1" d="M4.5,14c-0.4-0.2-0.2-0.8,0.2-0.6c0.5,0.2,0.9,0.4,1.4,0.6l1.1-0.3l-1.4-0.8c-0.4-0.2,0-0.8,0.3-0.5
			c0.7,0.4,1.3,0.8,2,1.2l1-0.2c-0.7-0.5-1.4-1-2.1-1.5c-0.3-0.2,0-0.8,0.3-0.5C8.2,12,9,12.6,9.9,13.2l2.3-0.5L10.6,11
			c-1.1,0-2.1,0.1-3.2,0.1c-0.4,0-0.4-0.6,0-0.6c0.9,0,1.7-0.1,2.6-0.1l-0.7-1C8.5,9.4,7.7,9.3,7,9.3c-0.4,0-0.4-0.7,0-0.6l1.6,0.1
			L7.9,7.9c-0.5-0.1-1-0.2-1.5-0.3C6,7.6,6.2,7,6.6,7.1l1.1,0.2L7.5,6.2c0-0.4,0.6-0.6,0.7-0.2c0.1,0.5,0.1,1,0.2,1.5l0.7,0.8V6.7
			c0-0.4,0.6-0.4,0.6,0c0,0.8,0,1.5,0,2.3l0.7,0.8c0.1-0.9,0.2-1.7,0.2-2.6c0-0.4,0.7-0.4,0.6,0c-0.1,1-0.2,2.1-0.3,3.1l1.6,1.7
			l0.7-2.3c-0.6-0.9-1.1-1.8-1.7-2.7c-0.2-0.3,0.3-0.6,0.6-0.3c0.4,0.7,0.9,1.5,1.3,2.2l0.3-1c-0.4-0.7-0.7-1.3-1.1-2
			c-0.2-0.4,0.4-0.7,0.6-0.3L14,7.1l0.3-1c-0.2-0.5-0.3-0.9-0.5-1.4c-0.1-0.4,0.5-0.5,0.6-0.1l0.4,1.1L15.7,5
			c0.3-0.2,0.8,0.2,0.4,0.5s-0.8,0.6-1.2,0.9l-0.3,1L16,6.6c0.4-0.2,0.7,0.4,0.3,0.6c-0.7,0.4-1.3,0.7-2,1.1l-0.3,1
			c0.8-0.4,1.5-0.7,2.3-1.1C16.7,8,17,8.6,16.6,8.8c-1,0.4-1.9,0.9-2.9,1.3L13,12.4l2.3-0.5c0.5-0.9,1-1.9,1.5-2.8
			c0.2-0.4,0.7,0,0.5,0.3c-0.4,0.8-0.8,1.5-1.2,2.3l1-0.2c0.4-0.6,0.8-1.3,1.2-1.9c0.2-0.3,0.8,0,0.5,0.3l-0.9,1.4L19,11
			c0.3-0.4,0.7-0.8,1-1.1s0.7,0.2,0.4,0.5L20.1,11l1,0.4c0.4,0.2,0.2,0.8-0.2,0.6c-0.5-0.2-0.9-0.4-1.4-0.6l-1.1,0.3l1.4,0.8
			c0.4,0.2,0,0.8-0.3,0.5c-0.7-0.4-1.3-0.8-2-1.2l-1,0.2c0.7,0.5,1.4,1,2.1,1.5c0.3,0.2,0,0.8-0.3,0.5c-0.9-0.6-1.7-1.2-2.6-1.8
			l-2.3,0.5l1.6,1.7c1.1,0,2.1-0.1,3.2-0.1c0.4,0,0.4,0.6,0,0.6c-0.9,0-1.7,0.1-2.6,0.1l0.7,0.8c0.8,0,1.5,0.1,2.3,0.1
			c0.4,0,0.4,0.7,0,0.6L17,16.6l0.7,0.8c0.5,0.1,1,0.2,1.5,0.3c0.4,0.1,0.2,0.7-0.2,0.6l-1.1-0.2l0.1,1.1c0.1,0.4-0.6,0.5-0.6,0.1
			c-0.1-0.5-0.1-1-0.2-1.5L16.5,17v1.6c0,0.4-0.6,0.4-0.6,0c0-0.8,0-1.5,0-2.3l-0.7-0.8c-0.1,0.9-0.2,1.7-0.2,2.6
			c0,0.4-0.7,0.4-0.6,0c0.1-1,0.2-2.1,0.3-3.1l-1.6-1.7l-0.7,2.3c0.6,0.9,1.1,1.8,1.7,2.7c0.2,0.3-0.3,0.6-0.6,0.3
			c-0.4-0.7-0.9-1.5-1.3-2.2l-0.3,1c0.4,0.7,0.7,1.3,1.1,2c0.2,0.4-0.4,0.7-0.6,0.3l-0.8-1.5l-0.3,1c0.2,0.5,0.3,0.9,0.5,1.4
			c0.1,0.4-0.5,0.5-0.6,0.2l-0.4-1.1l-0.9,0.7C9.5,20.7,9,20.3,9.3,20c0.4-0.3,0.8-0.6,1.2-0.9l0.3-1l-1.4,0.8
			c-0.4,0.2-0.7-0.4-0.3-0.6c0.7-0.4,1.3-0.7,2-1.1l0.3-1c-0.8,0.4-1.5,0.7-2.3,1.1c-0.4,0.2-0.7-0.4-0.3-0.6c1-0.4,1.9-0.9,2.9-1.3
			l0.7-2.3L10,13.7c-0.5,0.9-1,1.9-1.5,2.8c-0.2,0.4-0.7,0-0.5-0.3c0.4-0.8,0.8-1.5,1.2-2.3l-1,0.2C7.8,14.8,7.4,15.4,7,16
			c-0.2,0.3-0.8,0-0.5-0.3l0.9-1.4l-1.1,0.3c-0.3,0.4-0.7,0.8-1,1.1C5,16,4.6,15.6,4.8,15.3l0.7-0.8L4.5,14z"/>
		<g class="st2">
			<g>
				<path class="st3" d="M34.7,15.5c0.1,0.1,0.2,0.2,0.2,0.4c0.1,0.2,0.1,0.4,0.1,0.6c0,0.3,0.1,0.5,0.1,0.6c0,0.2,0.1,0.3,0.1,0.3
					c0.1,0.3,0.2,0.5,0.3,0.7c0,0.2,0.1,0.3,0.1,0.4s0,0.3,0,0.5s0,0.4-0.1,0.6s-0.1,0.3-0.2,0.5c-0.1,0.2-0.1,0.3-0.2,0.5
					c-0.1,0.2-0.2,0.3-0.3,0.5c-0.1,0.1-0.2,0.3-0.4,0.4c-0.2,0.2-0.4,0.3-0.5,0.3C33.6,22,33.5,22,33.4,22s-0.2-0.1-0.3-0.2
					s-0.1-0.2-0.2-0.4c-0.1-0.1-0.2-0.2-0.3-0.3c-0.1-0.1-0.2-0.2-0.3-0.3c-0.1-0.1-0.1-0.2-0.1-0.3c0-0.1,0-0.3,0-0.4
					s0-0.4,0.1-0.6c0.1-0.3,0.2-0.6,0.3-1c0-0.2-0.1-0.5-0.1-0.8c-0.1-0.3-0.1-0.7-0.2-1.1c0-0.2-0.1-0.5-0.2-0.8
					c-0.1-0.3-0.2-0.7-0.3-1.1c-0.1-0.1-0.1-0.3-0.2-0.5s-0.2-0.5-0.3-0.7c0-0.2-0.1-0.3-0.2-0.5c-0.2,0.2-0.3,0.4-0.4,0.6
					c0,0.1-0.2,0.3-0.3,0.5s-0.4,0.5-0.7,0.8c-0.1,0.1-0.2,0.2-0.3,0.5s-0.3,0.5-0.5,0.9c-0.3,0.4-0.5,0.7-0.8,1.1
					c-0.2,0.2-0.3,0.4-0.4,0.6s-0.2,0.4-0.2,0.5l0.1,0.1h0.1c0,0,0.1-0.1,0.2-0.1c0.1-0.1,0.2-0.1,0.3-0.2h0.1c0.1,0,0.2,0,0.3,0.1
					s0.1,0.2,0.1,0.3c0,0.1-0.1,0.1-0.1,0.2s-0.1,0.2-0.2,0.4c-0.1,0.2-0.6,0.7-1.7,1.5c-1,0.8-1.6,1.2-1.7,1.2
					c-0.3,0-0.5-0.1-0.6-0.2c-0.1-0.2-0.2-0.4-0.2-0.7c0-0.2,0-0.4,0-0.7c0-0.3,0-0.5,0-0.7c0-0.3,0.1-0.7,0.3-1.1
					c0.2-0.4,0.5-0.9,0.9-1.5c0.3-0.4,0.6-0.8,1-1.2c0.3-0.4,0.6-0.8,0.9-1.1c0.9-1.2,1.6-2.2,2.1-2.9c0.5-0.7,0.7-1.1,0.7-1.3
					c0-0.1-0.1-0.4-0.2-0.7c-0.1-0.4-0.4-0.9-0.7-1.5c0-0.4-0.2-0.8-0.3-1.1c-0.2-0.3-0.3-0.5-0.4-0.7l-0.1-0.1c0,0-0.1-0.2-0.2-0.2
					c-0.1-0.1-0.1-0.3-0.3-0.5c-0.1-0.2-0.2-0.4-0.4-0.7c-0.1-0.1-0.2-0.2-0.2-0.3c-0.1-0.1-0.1-0.2-0.2-0.3
					c-0.1-0.1-0.2-0.3-0.2-0.4s-0.1-0.2-0.1-0.3c0-0.2,0-0.3,0.1-0.4s0.2-0.1,0.4-0.1c0.1,0,0.3,0.1,0.6,0.2s0.5,0.2,0.6,0.2
					c0.6,0.6,1,1.1,1.4,1.6s0.7,1,0.9,1.4C31,6.7,31,6.8,31,6.9s0.1,0.2,0.2,0.3C31.5,7.6,31.7,8,32,8.4c0.1-0.1,0.2-0.1,0.3-0.3
					c0.1-0.1,0.2-0.2,0.3-0.4c0.1-0.1,0.2-0.3,0.4-0.5s0.3-0.5,0.5-0.8c0.1-0.2,0.1-0.4,0.3-0.6s0.2-0.4,0.4-0.6
					c0.1-0.1,0.1-0.3,0.3-0.5c0.1-0.2,0.2-0.4,0.4-0.7C35,3.9,35,3.9,35.1,3.8s0.2-0.2,0.3-0.3c0.1-0.2,0.3-0.4,0.4-0.6
					c0.1-0.2,0.3-0.4,0.4-0.6c0.2-0.4,0.4-0.6,0.6-0.8s0.2-0.3,0.3-0.3s0.2,0,0.3,0.1s0.1,0.2,0.1,0.3c0,0.3,0,0.5,0,0.7
					s0,0.4,0,0.5S37.4,3,37.3,3.2c-0.1,0.2-0.1,0.3-0.2,0.6c-0.3,0.5-0.5,0.9-0.8,1.4s-0.6,1-0.9,1.6c-0.2,0.4-0.5,0.8-0.7,1.3
					c-0.7,0.4-1,0.9-1.4,1.4C33.2,9.7,33.1,9.9,33,10s-0.1,0.3-0.1,0.3s0.3,0.8,0.9,2.4C34.4,14.3,34.7,15.2,34.7,15.5z"/>
				<path class="st3" d="M36.2,17.9c0.1-0.1,0.1-0.1,0.2-0.3c0.1-0.1,0.2-0.2,0.2-0.3c0.4-0.5,0.8-0.9,1.2-1.3s0.7-0.7,1.1-1.1
					c0.2-0.2,0.4-0.4,0.6-0.6c0.2-0.3,0.5-0.6,0.9-0.9c0.3-0.1,0.7-0.3,1.1-0.4c0.2,0,0.4,0.1,0.5,0.2c0.1,0.2,0.2,0.4,0.2,0.7
					s0,0.5-0.1,0.8c0,0.3-0.1,0.6-0.2,0.9c-0.1,0.2-0.1,0.5-0.2,0.7c0,0.1,0,0.1,0,0.1h0.1c0.1-0.1,0.4-0.3,0.8-0.7
					c0.4-0.4,0.9-0.9,1.5-1.6c0.5-0.6,1-1,1.4-1.3s0.7-0.4,1-0.4s0.5,0.1,0.6,0.3s0.2,0.5,0.2,0.9c0,0.6,0,1.1-0.1,1.6
					s-0.2,1-0.4,1.5c0,0.1-0.1,0.2-0.1,0.2c0,0.1,0,0.1,0,0.2s0.1,0.1,0.2,0.2c0.1-0.1,0.2-0.2,0.3-0.3c0.1-0.1,0.2-0.3,0.3-0.5
					c0.2-0.2,0.4-0.3,0.6-0.5c0.2-0.2,0.4-0.3,0.7-0.5s0.5-0.4,0.8-0.5s0.5-0.2,0.8-0.2h0.1l0.1,0.1c0.2,0.2,0.4,0.3,0.5,0.5
					s0.2,0.3,0.3,0.4c0.4,0.7,0.7,1.3,0.9,1.6c0.3,0.4,0.5,0.5,0.7,0.5h0.1l0.1-0.1c0.2,0.4,0.4,0.9,0.5,1.3
					c-0.3,0.3-0.6,0.4-0.9,0.6s-0.5,0.2-0.7,0.2c-0.6,0-1.3-0.4-1.9-1.2c-0.7-0.8-1.2-1.2-1.5-1.2c-0.5,0-1.3,0.7-2.4,2.1
					c-1.1,1.4-1.8,2.1-2.1,2.1c-0.1,0-0.3,0-0.5,0c-0.1,0-0.1-0.1-0.2-0.2c0-0.1-0.1-0.2-0.1-0.3c0-0.1,0-0.3,0.1-0.5
					s0.1-0.5,0.2-0.8c0.1-0.4,0.2-0.7,0.3-0.9s0.1-0.4,0.1-0.5s0.1-0.3,0.1-0.7c0-0.3,0.1-0.8,0.2-1.4c0-0.1,0-0.2-0.1-0.2
					c-0.1-0.1-0.1-0.1-0.2-0.1c-0.1,0-0.1,0-0.2,0.1s-0.2,0.1-0.3,0.2s-0.2,0.2-0.4,0.4c-0.1,0.1-0.3,0.3-0.6,0.5
					c-0.3,0.4-0.6,0.7-1,1.1c-0.3,0.4-0.7,0.8-1,1.1c-0.5,0.6-1,1.1-1.3,1.4s-0.5,0.5-0.6,0.5c-0.3,0-0.5,0-0.6-0.1
					s-0.2-0.2-0.2-0.3c0-0.3,0.2-0.9,0.5-1.9c0.3-0.9,0.5-1.6,0.5-2c0-0.1,0-0.1-0.1-0.2s-0.1-0.1-0.2-0.1c-0.1,0-0.2,0.1-0.4,0.2
					s-0.3,0.3-0.5,0.6c-0.1,0.1-0.3,0.3-0.5,0.5s-0.4,0.4-0.7,0.7c0,0.1-0.1,0.1-0.1,0.2s-0.1,0.1-0.2,0.2c0-0.1-0.1-0.3-0.2-0.5
					C36.4,18.5,36.3,18.2,36.2,17.9z"/>
				<path class="st3" d="M53.8,17.3l1.2-0.8c0,0,0.1-0.1,0.2-0.2c0.1-0.1,0.1-0.2,0.2-0.3c0.1-0.1,0.1-0.2,0.3-0.3
					c0.1-0.1,0.2-0.2,0.4-0.2c0.1-0.1,0.2-0.2,0.3-0.3s0.3-0.3,0.5-0.5c0.1-0.1,0.2-0.1,0.4-0.2c0.2-0.1,0.3-0.2,0.5-0.4
					c0.8-0.8,1.6-1.4,2.2-1.8c0.6-0.4,1.1-0.6,1.6-0.6c0.2,0,0.4,0.1,0.5,0.2c0.1,0.1,0.2,0.2,0.2,0.4s0,0.4-0.1,0.5
					S62,13,61.8,13.1c-0.2,0.2-0.5,0.3-0.7,0.5c-0.1,0.2-0.3,0.4-0.5,0.6c-0.2,0.2-0.5,0.4-0.7,0.6c-0.1,0.1-0.2,0.2-0.2,0.3
					c0,0-0.1,0.1-0.3,0.2c-0.1,0.1-0.3,0.3-0.5,0.4c-0.1,0.2-0.3,0.5-0.6,0.8s-0.7,0.7-1.2,1.1c-0.1,0.1-0.2,0.2-0.3,0.4
					c-0.2,0.2-0.4,0.5-0.6,0.9l0.1,0.1c0.2-0.1,0.4-0.2,0.6-0.3c0.2-0.2,0.5-0.4,0.7-0.6c0.3-0.3,0.6-0.5,0.8-0.7s0.3-0.3,0.4-0.3
					c0.1,0,0.1-0.1,0.2-0.1c0.1,0,0.1-0.1,0.2-0.1c0.4-0.5,0.8-0.9,1.2-1.1c0.4-0.2,0.7-0.4,1-0.4c0.2,0,0.3,0.1,0.4,0.2
					c0.1,0.1,0.2,0.4,0.2,0.7c0,0.5,0,0.9,0,1.3c0,0.3,0.1,0.6,0.2,0.8c0.2,0.2,0.4,0.3,0.7,0.3c0.1,0,0.2,0,0.2-0.1
					c0.1,0,0.2-0.1,0.2-0.2c0.1-0.1,0.1-0.2,0.2-0.2c0.1-0.1,0.1-0.1,0.2-0.2c0,0,0.1,0,0.2-0.1c0.1-0.1,0.1-0.1,0.2-0.2
					c0.1,0.3,0.2,0.5,0.3,0.7c0.1,0.2,0.2,0.4,0.2,0.5c-0.2,0.2-0.4,0.4-0.6,0.6c-0.2,0.2-0.4,0.4-0.6,0.6c-0.3,0.2-0.5,0.4-0.8,0.5
					s-0.5,0.2-0.8,0.2c-0.6,0-1-0.2-1.4-0.5c-0.3-0.3-0.5-0.8-0.6-1.5c0-0.1,0-0.2,0-0.3c0-0.1-0.1-0.2-0.1-0.3c0,0-0.1,0.1-0.2,0.1
					c-0.1,0-0.1,0.1-0.2,0.2c-0.1,0.1-0.3,0.2-0.4,0.3c-0.2,0.1-0.4,0.3-0.6,0.5c-0.3,0.3-0.6,0.6-0.8,0.8s-0.4,0.4-0.5,0.5
					c-0.2,0.2-0.4,0.3-0.6,0.5c-0.2,0.2-0.5,0.3-0.8,0.5C55.2,21.9,55,22,54.9,22c-0.1,0.1-0.2,0.1-0.3,0.1c-0.4,0-0.8-0.1-1-0.3
					c-0.2-0.2-0.3-0.5-0.3-1c0-0.2,0.1-0.5,0.2-0.7s0.3-0.4,0.5-0.6c0-0.1,0-0.2,0-0.3v-0.1c0,0-0.1-0.1-0.1-0.2
					c-0.1-0.1-0.1-0.3-0.2-0.4s-0.1-0.3-0.2-0.5c0,0,0.1-0.1,0.2-0.2C53.7,17.6,53.7,17.5,53.8,17.3z"/>
				<path class="st3" d="M63.9,17.9L63.9,17.9c0.1-0.2,0.2-0.4,0.3-0.5c0.1-0.1,0.3-0.3,0.5-0.4c0.3-0.2,0.5-0.3,0.7-0.5
					s0.3-0.2,0.3-0.3c0.1-0.1,0.1-0.2,0.2-0.2c0.1-0.1,0.2-0.2,0.4-0.3s0.3-0.3,0.5-0.5c0.1,0,0.1-0.1,0.2-0.2
					c0.1-0.1,0.1-0.2,0.2-0.3s0.3-0.2,0.4-0.3s0.3-0.3,0.5-0.5s0.5-0.5,0.8-0.8s0.6-0.6,1-0.9c0.1-0.1,0.2-0.1,0.3-0.1
					c0.1,0,0.2,0,0.3,0c0.4,0,0.7,0.1,0.9,0.3c0.2,0.2,0.3,0.5,0.3,0.8c0,0.1,0,0.2,0,0.5c0,0.2-0.1,0.5-0.1,0.8
					c-0.1,0.9-0.2,1.5-0.3,1.7c-0.1,0.2-0.2,0.8-0.6,1.9c-0.1,0.2-0.1,0.4-0.2,0.6c-0.1,0.3-0.2,0.6-0.3,0.9l0.1,0.1
					c0.1,0,0.2-0.1,0.3-0.2c0.2-0.1,0.4-0.3,0.7-0.6c0.3-0.3,0.6-0.5,0.8-0.7c0.2-0.2,0.3-0.2,0.3-0.3c0.1,0.2,0.2,0.5,0.3,0.7
					c0.1,0.2,0.2,0.4,0.2,0.6c-0.1,0.1-0.2,0.2-0.3,0.2c-0.1,0.1-0.2,0.2-0.3,0.3c-0.2,0.1-0.4,0.3-0.7,0.4
					c-0.3,0.2-0.5,0.3-0.8,0.5c-0.1,0.1-0.3,0.3-0.6,0.5c-0.2,0.2-0.5,0.4-0.8,0.7l-0.3,0.1c-0.1,0.2-0.2,0.3-0.4,0.4
					c-0.1,0.1-0.2,0.2-0.3,0.2c-0.1,0.1-0.3,0.1-0.4,0.2s-0.3,0.1-0.5,0.2c-0.1,0-0.2-0.1-0.2-0.2s-0.1-0.2-0.1-0.4
					c-0.1-0.2-0.2-0.5-0.3-0.8c0.1-0.4,0.1-0.8,0.1-1.1c0-0.1,0-0.2,0-0.2c0-0.1,0-0.2,0-0.2c0-0.3,0-0.5,0-0.5
					c0-0.3,0.1-0.5,0.3-0.7c0.2-0.2,0.4-0.3,0.7-0.3c0.1,0,0.2,0.1,0.3,0.2c0.1,0.1,0.1,0.2,0.2,0.2s0.1-0.1,0.2-0.4
					s0.1-0.6,0.2-1.1C69,17,69,16.6,69,16.3c0-0.3,0-0.5,0-0.7c0-0.1,0-0.2-0.1-0.3c0-0.1-0.1-0.1-0.3-0.1s-0.5,0.3-1.1,0.8
					c-0.6,0.5-1.5,1.4-2.7,2.4c0,0.1-0.1,0.1-0.2,0.2s-0.1,0.2-0.2,0.3c0-0.1-0.1-0.3-0.2-0.5C64.1,18.5,64,18.2,63.9,17.9z"/>
				<path class="st3" d="M89.3,8.7c0-0.2-0.1-0.3-0.1-0.4c0-0.3,0.1-0.5,0.2-0.8s0.1-0.5,0.1-0.8c0.1-0.4,0.2-0.7,0.3-0.9
					s0.3-0.4,0.4-0.5L91.1,5c0.1,0,0.2-0.1,0.4-0.1c0.1,0,0.2,0,0.2,0.1s0.1,0.2,0.1,0.4c0,0.1,0,0.2-0.1,0.5c0,0.3-0.1,0.7-0.2,1.3
					c0,0.1,0,0.3,0,0.4s0,0.3-0.1,0.4c0,0.1,0,0.2-0.1,0.3s-0.1,0.3-0.2,0.4c0,0.2-0.1,0.6-0.3,1.3c-0.2,0.7-0.6,1.6-1.1,2.8
					c-0.4,1-0.8,1.9-1.1,2.6c-0.3,0.7-0.6,1.4-0.9,1.8c-0.1,0.3-0.3,0.5-0.4,0.8c-0.2,0.3-0.3,0.6-0.5,0.9c0.1,0.2,0.2,0.4,0.2,0.5
					s0,0.2-0.1,0.3c-0.1,0.1-0.3,0.3-0.5,0.6s-0.4,0.5-0.7,0.8c-0.2,0.1-0.4,0.2-0.6,0.3c-0.1,0.2-0.3,0.3-0.3,0.5
					c-0.2,0.1-0.3,0.2-0.5,0.2c-0.2,0.1-0.3,0.1-0.4,0.1c-0.2,0-0.4-0.1-0.6-0.3c-0.2-0.2-0.3-0.4-0.3-0.7c0-0.2,0.1-0.3,0.3-0.6
					c0.2-0.2,0.3-0.4,0.4-0.5V20l-0.1-0.2c0-0.2-0.1-0.4-0.2-0.6s-0.1-0.4-0.2-0.5c-0.2-0.3-0.3-0.6-0.4-1s-0.2-0.8-0.4-1.4
					c0-0.2-0.1-0.4-0.1-0.6c0-0.1,0-0.2,0-0.3s-0.1-0.2-0.1-0.3S82,15,82,14.9c0-0.3-0.1-0.7-0.2-1.1s-0.1-1-0.2-1.6
					c0-0.1,0-0.2,0-0.3s-0.1-0.2-0.1-0.4c-0.1-0.1-0.1-0.3-0.1-0.4c0-0.1,0-0.2,0-0.3c0-0.3,0-0.5,0-0.8c-0.1-0.2-0.1-0.3-0.1-0.4
					l0.1-0.5c-0.1-0.1-0.2-0.3-0.2-0.5c-0.1-0.2-0.1-0.4-0.1-0.6c0-0.1,0-0.2,0-0.3c0-0.1,0.1-0.2,0.1-0.2c0-0.1-0.1-0.3-0.1-0.4
					s0-0.3,0-0.5c-0.1-0.1-0.2-0.3-0.2-0.4s0-0.2,0-0.3L81,5.4c0-0.1-0.1-0.3-0.1-0.3c0.1-0.5,0.2-1,0.3-1.3
					c0.1-0.3,0.1-0.5,0.2-0.6c0.1-0.3,0.3-0.6,0.6-0.8C82.1,2.2,82.4,2,82.8,2c0.1-0.1,0.2-0.2,0.3-0.2c0.1-0.1,0.2-0.1,0.3-0.1
					c0.1,0,0.2,0,0.3,0.1c0.1,0.1,0.2,0.2,0.2,0.4S84,2.5,84,2.7s0,0.3,0,0.4c0,0.3-0.1,0.7-0.1,1.2s-0.1,0.9-0.1,1.5
					c0,0.1-0.1,0.2-0.1,0.3c-0.1,0.1-0.1,0.3-0.1,0.3c0,0.1,0,0.2,0.1,0.4c0.1,0.2,0.1,0.3,0.1,0.4s0,0.2,0,0.3c0,0.1,0,0.4-0.1,0.8
					c0,0.2,0.1,0.4,0.1,0.7c0,0.1,0,0.3,0,0.5s0,0.4,0,0.5s0,0.1,0,0.1s0.1,0.2,0.1,0.4s0,0.4,0.1,0.7c0,0.3,0.1,0.6,0.1,0.9
					c0,0.3,0.1,0.7,0.2,1.2s0.1,1,0.2,1.6v0.5c0,0.1,0,0.1,0.1,0.2c0,0.1,0.1,0.2,0.2,0.3c0.1,0.2,0.1,0.5,0.2,0.8s0.1,0.6,0.2,0.9
					c0,0.1,0,0.2,0.1,0.2s0.1,0.1,0.2,0.1c0.2-0.2,0.4-0.4,0.5-0.6c0.1-0.1,0.2-0.3,0.3-0.6c0.1-0.3,0.3-0.6,0.5-1.1
					c0-0.1,0.1-0.3,0.2-0.4c0.1-0.2,0.2-0.3,0.3-0.6c0.1-0.2,0.3-0.5,0.5-1s0.5-1.1,0.8-1.9c0.2-0.7,0.5-1.2,0.6-1.7
					s0.3-0.8,0.4-1.1L89.3,8.7z"/>
				<path class="st3" d="M91.1,17.9L91.1,17.9l0.1-0.2c0.2-0.3,0.7-0.8,1.3-1.3c0.6-0.5,1-1,1.3-1.3c0.1-0.1,0.2-0.3,0.3-0.3
					c0.1-0.1,0.2-0.1,0.4-0.1c0.3,0,0.6,0.1,0.8,0.2c0.2,0.2,0.4,0.4,0.4,0.7c0.1,0.3,0.1,0.6,0.2,0.9s0.1,0.6,0.1,0.9
					c0.1,0.2,0.1,0.5,0.2,0.8s0.2,0.6,0.2,0.6c0,0.1,0.1,0.2,0.2,0.2s0.2,0.1,0.3,0.1c0.2,0,0.3,0,0.5-0.1s0.3-0.2,0.5-0.3
					c0.1-0.1,0.3-0.2,0.4-0.4c0.1-0.1,0.3-0.2,0.4-0.4l0.5,1.3c-0.1,0.1-0.3,0.3-0.6,0.5c-0.2,0.2-0.5,0.4-0.9,0.6
					c-0.4,0.3-0.7,0.5-1,0.6s-0.5,0.2-0.6,0.2c-0.8,0-1.4-0.1-1.6-0.3c-0.2-0.2-0.5-0.7-0.8-1.6c0-0.1-0.1-0.2-0.2-0.3
					c-0.1-0.1-0.2-0.2-0.2-0.4c-0.1-0.2-0.2-0.4-0.3-0.5c-0.1-0.1-0.2-0.2-0.2-0.2c-0.1,0-0.3,0.1-0.6,0.3c-0.2,0.2-0.5,0.5-0.9,0.9
					c0-0.1-0.1-0.3-0.2-0.4C91,18.4,91,18.2,90.9,18c0-0.1,0-0.1-0.1-0.2C91.2,18,91.2,17.9,91.1,17.9z M96.8,7.2
					c0.2,0,0.4,0,0.5,0.1s0.2,0.2,0.2,0.4c-0.1,0.3-0.1,0.5-0.1,0.6c-0.1,0.3-0.2,0.6-0.2,0.8C97.1,9.3,97,9.5,97,9.6
					c-0.1,0.2-0.2,0.4-0.3,0.5c-0.1,0.1-0.3,0.3-0.5,0.4c-0.2,0.1-0.4,0.2-0.5,0.3s-0.2,0.1-0.3,0.1c-0.2,0-0.3,0-0.4,0
					s-0.3,0-0.4,0c-0.1-0.1-0.2-0.2-0.3-0.4c-0.1-0.2-0.1-0.4-0.1-0.7s0.2-0.6,0.5-1s0.6-0.6,0.9-0.7c0.2-0.2,0.3-0.4,0.5-0.7
					c0.1-0.1,0.2-0.1,0.4-0.2S96.7,7.2,96.8,7.2z"/>
				<path class="st3" d="M98.9,17.9c0.1-0.1,0.2-0.3,0.4-0.5c0.2-0.2,0.4-0.4,0.6-0.7c0.1-0.3,0.2-0.6,0.3-0.9
					c0.1-0.4,0.1-0.8,0.2-1.3s0.1-1,0.2-1.4s0.1-0.7,0.2-0.9c0.4-1.3,0.7-2.3,1-3c0.2-0.7,0.4-1.1,0.4-1.2c0.3-0.8,0.6-1.6,0.9-2.2
					s0.7-1.2,1-1.7c0.1-0.1,0.2-0.2,0.3-0.3c0.1-0.1,0.2-0.2,0.3-0.3c0.3-0.2,0.6-0.3,0.9-0.5c0.2-0.1,0.3-0.1,0.5-0.2
					s0.3-0.1,0.5-0.1c0.3,0,0.5,0.1,0.6,0.4c0.1,0.2,0.2,0.6,0.2,1.1c0,0.3,0,0.6-0.1,1S107.1,6,107,6.4c-0.2,0.6-0.4,1.1-0.5,1.5
					s-0.2,0.6-0.2,0.7c0,0.2-0.1,0.4-0.3,0.7c-0.1,0.3-0.3,0.6-0.5,1.1c-0.3,0.5-0.5,1-0.7,1.2c-0.2,0.3-0.3,0.5-0.3,0.5
					c-0.1,0.1-0.1,0.1-0.2,0.2s-0.1,0.1-0.2,0.2v0.3c0,0.1-0.1,0.2-0.1,0.2c-0.2,0.3-0.4,0.7-0.6,1.1c-0.3,0.4-0.6,1-1,1.5
					c-0.2,0.3-0.4,0.6-0.5,0.8s-0.2,0.4-0.2,0.6v1.2c0,0.2,0.1,0.5,0.2,0.7s0.1,0.5,0.2,0.7c0,0.3,0.1,0.5,0.3,0.7
					c0.1,0.2,0.3,0.2,0.4,0.2c0.4,0,0.7-0.1,0.9-0.3c0.2-0.2,0.4-0.4,0.5-0.8c-0.2-0.1-0.4-0.2-0.6-0.3c-0.1-0.1-0.2-0.3-0.2-0.4
					s0.1-0.2,0.1-0.3c0-0.1,0.1-0.2,0.1-0.3c0-0.1,0-0.1,0-0.2s0-0.1,0-0.2c0.4-0.8,0.8-1.3,1.1-1.7c0.3-0.4,0.7-0.6,0.9-0.6
					c0.1,0,0.2,0,0.3,0s0.3,0,0.3,0c0.1,0,0.1,0,0.3,0c0.1,0,0.2,0,0.3,0c0.2,0,0.3,0.1,0.3,0.2c0.1,0.1,0.1,0.2,0.1,0.4
					c0,0.4-0.1,0.8-0.3,1.3c-0.2,0.5-0.3,0.7-0.3,0.8c0,0.1,0,0.1,0.1,0.2c0.1,0,0.1,0,0.2-0.1c0.1,0,0.1-0.1,0.2-0.1
					c0,0.1,0.1,0.3,0.2,0.4c0.1,0.2,0.2,0.3,0.3,0.5c0,0.1,0.1,0.1,0.1,0.2s0,0.1,0,0.1c-0.4,0.4-0.7,0.7-1,0.9s-0.5,0.3-0.7,0.3
					c-0.1,0-0.1,0-0.2,0s-0.2,0-0.3,0c-0.1,0.2-0.3,0.3-0.5,0.5s-0.4,0.4-0.6,0.7c-0.1,0.1-0.2,0.1-0.3,0.3
					c-0.1,0.1-0.3,0.2-0.5,0.4c-0.3,0.3-0.5,0.5-0.8,0.6s-0.5,0.2-0.8,0.2c-0.1,0-0.2,0-0.3,0c-0.1,0-0.2-0.1-0.4-0.2
					c-0.1-0.1-0.2-0.1-0.3-0.2c-0.1-0.1-0.3-0.2-0.4-0.3c-0.2-0.6-0.3-1.1-0.4-1.5c-0.1-0.5-0.1-0.9-0.1-1.3c0-0.1,0-0.1,0-0.2
					s0-0.1-0.1-0.1h-0.1h-0.1l-0.1,0.1c-0.1-0.2-0.2-0.4-0.2-0.6C99.2,18.3,99.1,18.1,98.9,17.9z M105.3,6.8L105.3,6.8
					c0-0.1,0-0.2-0.1-0.2s-0.1,0.1-0.2,0.2s-0.1,0.3-0.2,0.6c0,0.2-0.1,0.4-0.2,0.6s-0.3,0.5-0.5,0.9c-0.2,0.3-0.3,0.6-0.5,1
					s-0.3,0.7-0.5,1.2s-0.4,0.9-0.5,1.3c-0.1,0.4-0.2,0.7-0.2,0.9v0.1c0.1,0,0.2-0.2,0.4-0.5c0.2-0.3,0.4-0.8,0.7-1.4
					c0.3-0.5,0.4-0.9,0.6-1.2c0.1-0.3,0.2-0.5,0.2-0.6c0.1-0.2,0.2-0.5,0.3-0.9s0.2-0.7,0.3-1.1c0.1-0.2,0.2-0.3,0.2-0.4
					c0.1-0.1,0.1-0.1,0.1-0.2S105.3,6.9,105.3,6.8z"/>
				<path class="st3" d="M107.1,17.9c0.1-0.2,0.3-0.4,0.4-0.6s0.4-0.4,0.7-0.6c0-0.2,0.1-0.4,0.1-0.5c0-0.2,0-0.4,0.1-0.5
					c0-0.1,0.1-0.3,0.1-0.5c0.1-0.2,0.1-0.4,0.2-0.6c0.1-0.2,0.2-0.5,0.3-0.8c0.1-0.3,0.3-0.6,0.6-1c0.2-0.2,0.4-0.4,0.6-0.7
					s0.4-0.5,0.6-0.8c0.1-0.1,0.2-0.2,0.3-0.2s0.2-0.2,0.4-0.2c0.1,0,0.2-0.1,0.4-0.1c0.1,0,0.3,0,0.5,0s0.4,0,0.6,0.1
					c0.1,0,0.3,0.1,0.3,0.2c0.1,0.1,0.1,0.2,0.2,0.3s0.1,0.3,0.2,0.5c0,0.2,0.1,0.4,0.1,0.6c0-0.1,0,0,0,0.1s-0.1,0.3-0.1,0.5
					l-0.1,0.4c-0.1,0.4-0.4,0.9-0.9,1.5c-0.4,0.6-1,1.2-1.8,2c-0.1,0.1-0.1,0.1-0.2,0.2c0,0.1-0.1,0.2-0.1,0.3c0,0.2,0,0.4,0.1,0.5
					s0.2,0.3,0.3,0.3c0.1,0.1,0.2,0.1,0.3,0.2c0.2,0.1,0.3,0.1,0.6,0.1c0.4,0,0.7-0.1,1-0.2s0.5-0.2,0.8-0.3c0,0,0.1-0.1,0.2-0.1
					s0.2-0.1,0.3-0.2c0.1,0.3,0.2,0.5,0.3,0.7c0.1,0.2,0.2,0.4,0.2,0.5c-0.5,0.5-1,0.9-1.4,1.2c-0.4,0.3-0.8,0.4-1.2,0.4
					c-0.1,0.1-0.3,0.2-0.5,0.2S111,21,110.8,21c-0.3,0-0.6-0.1-0.9-0.2s-0.5-0.2-0.6-0.4c-0.1-0.1-0.2-0.2-0.3-0.4
					c-0.1-0.2-0.2-0.4-0.3-0.6c-0.1-0.2-0.2-0.3-0.2-0.4c-0.1-0.1-0.2-0.1-0.2-0.1c-0.1,0-0.2,0-0.2,0.1s-0.2,0.2-0.3,0.3
					c0-0.1-0.1-0.3-0.2-0.5C107.4,18.5,107.2,18.2,107.1,17.9z M111.5,13.5c-0.2,0-0.5,0.3-0.8,0.8s-0.5,0.9-0.5,1.2
					c0,0.1,0,0.1,0,0.1h0.1c0.1,0,0.2-0.1,0.2-0.2s0.1-0.2,0.2-0.3s0.2-0.2,0.3-0.3s0.2-0.2,0.3-0.3c0.1-0.1,0.2-0.3,0.2-0.4
					s0.1-0.3,0.1-0.4C111.6,13.6,111.6,13.6,111.5,13.5C111.6,13.5,111.5,13.5,111.5,13.5z"/>
			</g>
			<g>
				<path class="st4" d="M34.7,15.5c0.1,0.1,0.2,0.2,0.2,0.4c0.1,0.2,0.1,0.4,0.1,0.6c0,0.3,0.1,0.5,0.1,0.6c0,0.2,0.1,0.3,0.1,0.3
					c0.1,0.3,0.2,0.5,0.3,0.7c0,0.2,0.1,0.3,0.1,0.4s0,0.3,0,0.5s0,0.4-0.1,0.6s-0.1,0.3-0.2,0.5c-0.1,0.2-0.1,0.3-0.2,0.5
					c-0.1,0.2-0.2,0.3-0.3,0.5c-0.1,0.1-0.2,0.3-0.4,0.4c-0.2,0.2-0.4,0.3-0.5,0.3C33.6,22,33.5,22,33.4,22s-0.2-0.1-0.3-0.2
					s-0.1-0.2-0.2-0.4c-0.1-0.1-0.2-0.2-0.3-0.3c-0.1-0.1-0.2-0.2-0.3-0.3c-0.1-0.1-0.1-0.2-0.1-0.3c0-0.1,0-0.3,0-0.4
					s0-0.4,0.1-0.6c0.1-0.3,0.2-0.6,0.3-1c0-0.2-0.1-0.5-0.1-0.8c-0.1-0.3-0.1-0.7-0.2-1.1c0-0.2-0.1-0.5-0.2-0.8
					c-0.1-0.3-0.2-0.7-0.3-1.1c-0.1-0.1-0.1-0.3-0.2-0.5s-0.2-0.5-0.3-0.7c0-0.2-0.1-0.3-0.2-0.5c-0.2,0.2-0.3,0.4-0.4,0.6
					c0,0.1-0.2,0.3-0.3,0.5s-0.4,0.5-0.7,0.8c-0.1,0.1-0.2,0.2-0.3,0.5s-0.3,0.5-0.5,0.9c-0.3,0.4-0.5,0.7-0.8,1.1
					c-0.2,0.2-0.3,0.4-0.4,0.6s-0.2,0.4-0.2,0.5l0.1,0.1h0.1c0,0,0.1-0.1,0.2-0.1c0.1-0.1,0.2-0.1,0.3-0.2h0.1c0.1,0,0.2,0,0.3,0.1
					s0.1,0.2,0.1,0.3c0,0.1-0.1,0.1-0.1,0.2s-0.1,0.2-0.2,0.4c-0.1,0.2-0.6,0.7-1.7,1.5c-1,0.8-1.6,1.2-1.7,1.2
					c-0.3,0-0.5-0.1-0.6-0.2c-0.1-0.2-0.2-0.4-0.2-0.7c0-0.2,0-0.4,0-0.7c0-0.3,0-0.5,0-0.7c0-0.3,0.1-0.7,0.3-1.1
					c0.2-0.4,0.5-0.9,0.9-1.5c0.3-0.4,0.6-0.8,1-1.2c0.3-0.4,0.6-0.8,0.9-1.1c0.9-1.2,1.6-2.2,2.1-2.9c0.5-0.7,0.7-1.1,0.7-1.3
					c0-0.1-0.1-0.4-0.2-0.7c-0.1-0.4-0.4-0.9-0.7-1.5c0-0.4-0.2-0.8-0.3-1.1c-0.2-0.3-0.3-0.5-0.4-0.7l-0.1-0.1c0,0-0.1-0.2-0.2-0.2
					c-0.1-0.1-0.1-0.3-0.3-0.5c-0.1-0.2-0.2-0.4-0.4-0.7c-0.1-0.1-0.2-0.2-0.2-0.3c-0.1-0.1-0.1-0.2-0.2-0.3
					c-0.1-0.1-0.2-0.3-0.2-0.4s-0.1-0.2-0.1-0.3c0-0.2,0-0.3,0.1-0.4s0.2-0.1,0.4-0.1c0.1,0,0.3,0.1,0.6,0.2s0.5,0.2,0.6,0.2
					c0.6,0.6,1,1.1,1.4,1.6s0.7,1,0.9,1.4C31,6.7,31,6.8,31,6.9s0.1,0.2,0.2,0.3C31.5,7.6,31.7,8,32,8.4c0.1-0.1,0.2-0.1,0.3-0.3
					c0.1-0.1,0.2-0.2,0.3-0.4c0.1-0.1,0.2-0.3,0.4-0.5s0.3-0.5,0.5-0.8c0.1-0.2,0.1-0.4,0.3-0.6s0.2-0.4,0.4-0.6
					c0.1-0.1,0.1-0.3,0.3-0.5c0.1-0.2,0.2-0.4,0.4-0.7C35,3.9,35,3.9,35.1,3.8s0.2-0.2,0.3-0.3c0.1-0.2,0.3-0.4,0.4-0.6
					c0.1-0.2,0.3-0.4,0.4-0.6c0.2-0.4,0.4-0.6,0.6-0.8s0.2-0.3,0.3-0.3s0.2,0,0.3,0.1s0.1,0.2,0.1,0.3c0,0.3,0,0.5,0,0.7
					s0,0.4,0,0.5S37.4,3,37.3,3.2c-0.1,0.2-0.1,0.3-0.2,0.6c-0.3,0.5-0.5,0.9-0.8,1.4s-0.6,1-0.9,1.6c-0.2,0.4-0.5,0.8-0.7,1.3
					c-0.7,0.4-1,0.9-1.4,1.4C33.2,9.7,33.1,9.9,33,10s-0.1,0.3-0.1,0.3s0.3,0.8,0.9,2.4C34.4,14.3,34.7,15.2,34.7,15.5z"/>
				<path class="st4" d="M36.2,17.9c0.1-0.1,0.1-0.1,0.2-0.3c0.1-0.1,0.2-0.2,0.2-0.3c0.4-0.5,0.8-0.9,1.2-1.3s0.7-0.7,1.1-1.1
					c0.2-0.2,0.4-0.4,0.6-0.6c0.2-0.3,0.5-0.6,0.9-0.9c0.3-0.1,0.7-0.3,1.1-0.4c0.2,0,0.4,0.1,0.5,0.2c0.1,0.2,0.2,0.4,0.2,0.7
					s0,0.5-0.1,0.8c0,0.3-0.1,0.6-0.2,0.9c-0.1,0.2-0.1,0.5-0.2,0.7c0,0.1,0,0.1,0,0.1h0.1c0.1-0.1,0.4-0.3,0.8-0.7
					c0.4-0.4,0.9-0.9,1.5-1.6c0.5-0.6,1-1,1.4-1.3s0.7-0.4,1-0.4s0.5,0.1,0.6,0.3s0.2,0.5,0.2,0.9c0,0.6,0,1.1-0.1,1.6
					s-0.2,1-0.4,1.5c0,0.1-0.1,0.2-0.1,0.2c0,0.1,0,0.1,0,0.2s0.1,0.1,0.2,0.2c0.1-0.1,0.2-0.2,0.3-0.3c0.1-0.1,0.2-0.3,0.3-0.5
					c0.2-0.2,0.4-0.3,0.6-0.5c0.2-0.2,0.4-0.3,0.7-0.5s0.5-0.4,0.8-0.5s0.5-0.2,0.8-0.2h0.1l0.1,0.1c0.2,0.2,0.4,0.3,0.5,0.5
					s0.2,0.3,0.3,0.4c0.4,0.7,0.7,1.3,0.9,1.6c0.3,0.4,0.5,0.5,0.7,0.5h0.1l0.1-0.1c0.2,0.4,0.4,0.9,0.5,1.3
					c-0.3,0.3-0.6,0.4-0.9,0.6s-0.5,0.2-0.7,0.2c-0.6,0-1.3-0.4-1.9-1.2c-0.7-0.8-1.2-1.2-1.5-1.2c-0.5,0-1.3,0.7-2.4,2.1
					c-1.1,1.4-1.8,2.1-2.1,2.1c-0.1,0-0.3,0-0.5,0c-0.1,0-0.1-0.1-0.2-0.2c0-0.1-0.1-0.2-0.1-0.3c0-0.1,0-0.3,0.1-0.5
					s0.1-0.5,0.2-0.8c0.1-0.4,0.2-0.7,0.3-0.9s0.1-0.4,0.1-0.5s0.1-0.3,0.1-0.7c0-0.3,0.1-0.8,0.2-1.4c0-0.1,0-0.2-0.1-0.2
					c-0.1-0.1-0.1-0.1-0.2-0.1c-0.1,0-0.1,0-0.2,0.1s-0.2,0.1-0.3,0.2s-0.2,0.2-0.4,0.4c-0.1,0.1-0.3,0.3-0.6,0.5
					c-0.3,0.4-0.6,0.7-1,1.1c-0.3,0.4-0.7,0.8-1,1.1c-0.5,0.6-1,1.1-1.3,1.4s-0.5,0.5-0.6,0.5c-0.3,0-0.5,0-0.6-0.1
					s-0.2-0.2-0.2-0.3c0-0.3,0.2-0.9,0.5-1.9c0.3-0.9,0.5-1.6,0.5-2c0-0.1,0-0.1-0.1-0.2s-0.1-0.1-0.2-0.1c-0.1,0-0.2,0.1-0.4,0.2
					s-0.3,0.3-0.5,0.6c-0.1,0.1-0.3,0.3-0.5,0.5s-0.4,0.4-0.7,0.7c0,0.1-0.1,0.1-0.1,0.2s-0.1,0.1-0.2,0.2c0-0.1-0.1-0.3-0.2-0.5
					C36.4,18.5,36.3,18.2,36.2,17.9z"/>
				<path class="st4" d="M53.8,17.3l1.2-0.8c0,0,0.1-0.1,0.2-0.2c0.1-0.1,0.1-0.2,0.2-0.3c0.1-0.1,0.1-0.2,0.3-0.3
					c0.1-0.1,0.2-0.2,0.4-0.2c0.1-0.1,0.2-0.2,0.3-0.3s0.3-0.3,0.5-0.5c0.1-0.1,0.2-0.1,0.4-0.2c0.2-0.1,0.3-0.2,0.5-0.4
					c0.8-0.8,1.6-1.4,2.2-1.8c0.6-0.4,1.1-0.6,1.6-0.6c0.2,0,0.4,0.1,0.5,0.2c0.1,0.1,0.2,0.2,0.2,0.4s0,0.4-0.1,0.5
					S62,13,61.8,13.1c-0.2,0.2-0.5,0.3-0.7,0.5c-0.1,0.2-0.3,0.4-0.5,0.6c-0.2,0.2-0.5,0.4-0.7,0.6c-0.1,0.1-0.2,0.2-0.2,0.3
					c0,0-0.1,0.1-0.3,0.2c-0.1,0.1-0.3,0.3-0.5,0.4c-0.1,0.2-0.3,0.5-0.6,0.8s-0.7,0.7-1.2,1.1c-0.1,0.1-0.2,0.2-0.3,0.4
					c-0.2,0.2-0.4,0.5-0.6,0.9l0.1,0.1c0.2-0.1,0.4-0.2,0.6-0.3c0.2-0.2,0.5-0.4,0.7-0.6c0.3-0.3,0.6-0.5,0.8-0.7s0.3-0.3,0.4-0.3
					c0.1,0,0.1-0.1,0.2-0.1c0.1,0,0.1-0.1,0.2-0.1c0.4-0.5,0.8-0.9,1.2-1.1c0.4-0.2,0.7-0.4,1-0.4c0.2,0,0.3,0.1,0.4,0.2
					c0.1,0.1,0.2,0.4,0.2,0.7c0,0.5,0,0.9,0,1.3c0,0.3,0.1,0.6,0.2,0.8c0.2,0.2,0.4,0.3,0.7,0.3c0.1,0,0.2,0,0.2-0.1
					c0.1,0,0.2-0.1,0.2-0.2c0.1-0.1,0.1-0.2,0.2-0.2c0.1-0.1,0.1-0.1,0.2-0.2c0,0,0.1,0,0.2-0.1c0.1-0.1,0.1-0.1,0.2-0.2
					c0.1,0.3,0.2,0.5,0.3,0.7c0.1,0.2,0.2,0.4,0.2,0.5c-0.2,0.2-0.4,0.4-0.6,0.6c-0.2,0.2-0.4,0.4-0.6,0.6c-0.3,0.2-0.5,0.4-0.8,0.5
					s-0.5,0.2-0.8,0.2c-0.6,0-1-0.2-1.4-0.5c-0.3-0.3-0.5-0.8-0.6-1.5c0-0.1,0-0.2,0-0.3c0-0.1-0.1-0.2-0.1-0.3c0,0-0.1,0.1-0.2,0.1
					c-0.1,0-0.1,0.1-0.2,0.2c-0.1,0.1-0.3,0.2-0.4,0.3c-0.2,0.1-0.4,0.3-0.6,0.5c-0.3,0.3-0.6,0.6-0.8,0.8s-0.4,0.4-0.5,0.5
					c-0.2,0.2-0.4,0.3-0.6,0.5c-0.2,0.2-0.5,0.3-0.8,0.5C55.2,21.9,55,22,54.9,22c-0.1,0.1-0.2,0.1-0.3,0.1c-0.4,0-0.8-0.1-1-0.3
					c-0.2-0.2-0.3-0.5-0.3-1c0-0.2,0.1-0.5,0.2-0.7s0.3-0.4,0.5-0.6c0-0.1,0-0.2,0-0.3v-0.1c0,0-0.1-0.1-0.1-0.2
					c-0.1-0.1-0.1-0.3-0.2-0.4s-0.1-0.3-0.2-0.5c0,0,0.1-0.1,0.2-0.2C53.7,17.6,53.7,17.5,53.8,17.3z"/>
				<path class="st4" d="M63.9,17.9L63.9,17.9c0.1-0.2,0.2-0.4,0.3-0.5c0.1-0.1,0.3-0.3,0.5-0.4c0.3-0.2,0.5-0.3,0.7-0.5
					s0.3-0.2,0.3-0.3c0.1-0.1,0.1-0.2,0.2-0.2c0.1-0.1,0.2-0.2,0.4-0.3s0.3-0.3,0.5-0.5c0.1,0,0.1-0.1,0.2-0.2
					c0.1-0.1,0.1-0.2,0.2-0.3s0.3-0.2,0.4-0.3s0.3-0.3,0.5-0.5s0.5-0.5,0.8-0.8s0.6-0.6,1-0.9c0.1-0.1,0.2-0.1,0.3-0.1
					c0.1,0,0.2,0,0.3,0c0.4,0,0.7,0.1,0.9,0.3c0.2,0.2,0.3,0.5,0.3,0.8c0,0.1,0,0.2,0,0.5c0,0.2-0.1,0.5-0.1,0.8
					c-0.1,0.9-0.2,1.5-0.3,1.7c-0.1,0.2-0.2,0.8-0.6,1.9c-0.1,0.2-0.1,0.4-0.2,0.6c-0.1,0.3-0.2,0.6-0.3,0.9l0.1,0.1
					c0.1,0,0.2-0.1,0.3-0.2c0.2-0.1,0.4-0.3,0.7-0.6c0.3-0.3,0.6-0.5,0.8-0.7c0.2-0.2,0.3-0.2,0.3-0.3c0.1,0.2,0.2,0.5,0.3,0.7
					c0.1,0.2,0.2,0.4,0.2,0.6c-0.1,0.1-0.2,0.2-0.3,0.2c-0.1,0.1-0.2,0.2-0.3,0.3c-0.2,0.1-0.4,0.3-0.7,0.4
					c-0.3,0.2-0.5,0.3-0.8,0.5c-0.1,0.1-0.3,0.3-0.6,0.5c-0.2,0.2-0.5,0.4-0.8,0.7l-0.3,0.1c-0.1,0.2-0.2,0.3-0.4,0.4
					c-0.1,0.1-0.2,0.2-0.3,0.2c-0.1,0.1-0.3,0.1-0.4,0.2s-0.3,0.1-0.5,0.2c-0.1,0-0.2-0.1-0.2-0.2s-0.1-0.2-0.1-0.4
					c-0.1-0.2-0.2-0.5-0.3-0.8c0.1-0.4,0.1-0.8,0.1-1.1c0-0.1,0-0.2,0-0.2c0-0.1,0-0.2,0-0.2c0-0.3,0-0.5,0-0.5
					c0-0.3,0.1-0.5,0.3-0.7c0.2-0.2,0.4-0.3,0.7-0.3c0.1,0,0.2,0.1,0.3,0.2c0.1,0.1,0.1,0.2,0.2,0.2s0.1-0.1,0.2-0.4
					s0.1-0.6,0.2-1.1C69,17,69,16.6,69,16.3c0-0.3,0-0.5,0-0.7c0-0.1,0-0.2-0.1-0.3c0-0.1-0.1-0.1-0.3-0.1s-0.5,0.3-1.1,0.8
					c-0.6,0.5-1.5,1.4-2.7,2.4c0,0.1-0.1,0.1-0.2,0.2s-0.1,0.2-0.2,0.3c0-0.1-0.1-0.3-0.2-0.5C64.1,18.5,64,18.2,63.9,17.9z"/>
				<path class="st4" d="M89.3,8.7c0-0.2-0.1-0.3-0.1-0.4c0-0.3,0.1-0.5,0.2-0.8s0.1-0.5,0.1-0.8c0.1-0.4,0.2-0.7,0.3-0.9
					s0.3-0.4,0.4-0.5L91.1,5c0.1,0,0.2-0.1,0.4-0.1c0.1,0,0.2,0,0.2,0.1s0.1,0.2,0.1,0.4c0,0.1,0,0.2-0.1,0.5c0,0.3-0.1,0.7-0.2,1.3
					c0,0.1,0,0.3,0,0.4s0,0.3-0.1,0.4c0,0.1,0,0.2-0.1,0.3s-0.1,0.3-0.2,0.4c0,0.2-0.1,0.6-0.3,1.3c-0.2,0.7-0.6,1.6-1.1,2.8
					c-0.4,1-0.8,1.9-1.1,2.6c-0.3,0.7-0.6,1.4-0.9,1.8c-0.1,0.3-0.3,0.5-0.4,0.8c-0.2,0.3-0.3,0.6-0.5,0.9c0.1,0.2,0.2,0.4,0.2,0.5
					s0,0.2-0.1,0.3c-0.1,0.1-0.3,0.3-0.5,0.6s-0.4,0.5-0.7,0.8c-0.2,0.1-0.4,0.2-0.6,0.3c-0.1,0.2-0.3,0.3-0.3,0.5
					c-0.2,0.1-0.3,0.2-0.5,0.2c-0.2,0.1-0.3,0.1-0.4,0.1c-0.2,0-0.4-0.1-0.6-0.3c-0.2-0.2-0.3-0.4-0.3-0.7c0-0.2,0.1-0.3,0.3-0.6
					c0.2-0.2,0.3-0.4,0.4-0.5V20l-0.1-0.2c0-0.2-0.1-0.4-0.2-0.6s-0.1-0.4-0.2-0.5c-0.2-0.3-0.3-0.6-0.4-1s-0.2-0.8-0.4-1.4
					c0-0.2-0.1-0.4-0.1-0.6c0-0.1,0-0.2,0-0.3s-0.1-0.2-0.1-0.3S82,15,82,14.9c0-0.3-0.1-0.7-0.2-1.1s-0.1-1-0.2-1.6
					c0-0.1,0-0.2,0-0.3s-0.1-0.2-0.1-0.4c-0.1-0.1-0.1-0.3-0.1-0.4c0-0.1,0-0.2,0-0.3c0-0.3,0-0.5,0-0.8c-0.1-0.2-0.1-0.3-0.1-0.4
					l0.1-0.5c-0.1-0.1-0.2-0.3-0.2-0.5c-0.1-0.2-0.1-0.4-0.1-0.6c0-0.1,0-0.2,0-0.3c0-0.1,0.1-0.2,0.1-0.2c0-0.1-0.1-0.3-0.1-0.4
					s0-0.3,0-0.5c-0.1-0.1-0.2-0.3-0.2-0.4s0-0.2,0-0.3L81,5.4c0-0.1-0.1-0.3-0.1-0.3c0.1-0.5,0.2-1,0.3-1.3
					c0.1-0.3,0.1-0.5,0.2-0.6c0.1-0.3,0.3-0.6,0.6-0.8C82.1,2.2,82.4,2,82.8,2c0.1-0.1,0.2-0.2,0.3-0.2c0.1-0.1,0.2-0.1,0.3-0.1
					c0.1,0,0.2,0,0.3,0.1c0.1,0.1,0.2,0.2,0.2,0.4S84,2.5,84,2.7s0,0.3,0,0.4c0,0.3-0.1,0.7-0.1,1.2s-0.1,0.9-0.1,1.5
					c0,0.1-0.1,0.2-0.1,0.3c-0.1,0.1-0.1,0.3-0.1,0.3c0,0.1,0,0.2,0.1,0.4c0.1,0.2,0.1,0.3,0.1,0.4s0,0.2,0,0.3c0,0.1,0,0.4-0.1,0.8
					c0,0.2,0.1,0.4,0.1,0.7c0,0.1,0,0.3,0,0.5s0,0.4,0,0.5s0,0.1,0,0.1s0.1,0.2,0.1,0.4s0,0.4,0.1,0.7c0,0.3,0.1,0.6,0.1,0.9
					c0,0.3,0.1,0.7,0.2,1.2s0.1,1,0.2,1.6v0.5c0,0.1,0,0.1,0.1,0.2c0,0.1,0.1,0.2,0.2,0.3c0.1,0.2,0.1,0.5,0.2,0.8s0.1,0.6,0.2,0.9
					c0,0.1,0,0.2,0.1,0.2s0.1,0.1,0.2,0.1c0.2-0.2,0.4-0.4,0.5-0.6c0.1-0.1,0.2-0.3,0.3-0.6c0.1-0.3,0.3-0.6,0.5-1.1
					c0-0.1,0.1-0.3,0.2-0.4c0.1-0.2,0.2-0.3,0.3-0.6c0.1-0.2,0.3-0.5,0.5-1s0.5-1.1,0.8-1.9c0.2-0.7,0.5-1.2,0.6-1.7
					s0.3-0.8,0.4-1.1L89.3,8.7z"/>
				<path class="st4" d="M91.1,17.9L91.1,17.9l0.1-0.2c0.2-0.3,0.7-0.8,1.3-1.3c0.6-0.5,1-1,1.3-1.3c0.1-0.1,0.2-0.3,0.3-0.3
					c0.1-0.1,0.2-0.1,0.4-0.1c0.3,0,0.6,0.1,0.8,0.2c0.2,0.2,0.4,0.4,0.4,0.7c0.1,0.3,0.1,0.6,0.2,0.9s0.1,0.6,0.1,0.9
					c0.1,0.2,0.1,0.5,0.2,0.8s0.2,0.6,0.2,0.6c0,0.1,0.1,0.2,0.2,0.2s0.2,0.1,0.3,0.1c0.2,0,0.3,0,0.5-0.1s0.3-0.2,0.5-0.3
					c0.1-0.1,0.3-0.2,0.4-0.4c0.1-0.1,0.3-0.2,0.4-0.4l0.5,1.3c-0.1,0.1-0.3,0.3-0.6,0.5c-0.2,0.2-0.5,0.4-0.9,0.6
					c-0.4,0.3-0.7,0.5-1,0.6s-0.5,0.2-0.6,0.2c-0.8,0-1.4-0.1-1.6-0.3c-0.2-0.2-0.5-0.7-0.8-1.6c0-0.1-0.1-0.2-0.2-0.3
					c-0.1-0.1-0.2-0.2-0.2-0.4c-0.1-0.2-0.2-0.4-0.3-0.5c-0.1-0.1-0.2-0.2-0.2-0.2c-0.1,0-0.3,0.1-0.6,0.3c-0.2,0.2-0.5,0.5-0.9,0.9
					c0-0.1-0.1-0.3-0.2-0.4C91,18.4,91,18.2,90.9,18c0-0.1,0-0.1-0.1-0.2C91.2,18,91.2,17.9,91.1,17.9z M96.8,7.2
					c0.2,0,0.4,0,0.5,0.1s0.2,0.2,0.2,0.4c-0.1,0.3-0.1,0.5-0.1,0.6c-0.1,0.3-0.2,0.6-0.2,0.8C97.1,9.3,97,9.5,97,9.6
					c-0.1,0.2-0.2,0.4-0.3,0.5c-0.1,0.1-0.3,0.3-0.5,0.4c-0.2,0.1-0.4,0.2-0.5,0.3s-0.2,0.1-0.3,0.1c-0.2,0-0.3,0-0.4,0
					s-0.3,0-0.4,0c-0.1-0.1-0.2-0.2-0.3-0.4c-0.1-0.2-0.1-0.4-0.1-0.7s0.2-0.6,0.5-1s0.6-0.6,0.9-0.7c0.2-0.2,0.3-0.4,0.5-0.7
					c0.1-0.1,0.2-0.1,0.4-0.2S96.7,7.2,96.8,7.2z"/>
				<path class="st4" d="M98.9,17.9c0.1-0.1,0.2-0.3,0.4-0.5c0.2-0.2,0.4-0.4,0.6-0.7c0.1-0.3,0.2-0.6,0.3-0.9
					c0.1-0.4,0.1-0.8,0.2-1.3s0.1-1,0.2-1.4s0.1-0.7,0.2-0.9c0.4-1.3,0.7-2.3,1-3c0.2-0.7,0.4-1.1,0.4-1.2c0.3-0.8,0.6-1.6,0.9-2.2
					s0.7-1.2,1-1.7c0.1-0.1,0.2-0.2,0.3-0.3c0.1-0.1,0.2-0.2,0.3-0.3c0.3-0.2,0.6-0.3,0.9-0.5c0.2-0.1,0.3-0.1,0.5-0.2
					s0.3-0.1,0.5-0.1c0.3,0,0.5,0.1,0.6,0.4c0.1,0.2,0.2,0.6,0.2,1.1c0,0.3,0,0.6-0.1,1S107.1,6,107,6.4c-0.2,0.6-0.4,1.1-0.5,1.5
					s-0.2,0.6-0.2,0.7c0,0.2-0.1,0.4-0.3,0.7c-0.1,0.3-0.3,0.6-0.5,1.1c-0.3,0.5-0.5,1-0.7,1.2c-0.2,0.3-0.3,0.5-0.3,0.5
					c-0.1,0.1-0.1,0.1-0.2,0.2s-0.1,0.1-0.2,0.2v0.3c0,0.1-0.1,0.2-0.1,0.2c-0.2,0.3-0.4,0.7-0.6,1.1c-0.3,0.4-0.6,1-1,1.5
					c-0.2,0.3-0.4,0.6-0.5,0.8s-0.2,0.4-0.2,0.6v1.2c0,0.2,0.1,0.5,0.2,0.7s0.1,0.5,0.2,0.7c0,0.3,0.1,0.5,0.3,0.7
					c0.1,0.2,0.3,0.2,0.4,0.2c0.4,0,0.7-0.1,0.9-0.3c0.2-0.2,0.4-0.4,0.5-0.8c-0.2-0.1-0.4-0.2-0.6-0.3c-0.1-0.1-0.2-0.3-0.2-0.4
					s0.1-0.2,0.1-0.3c0-0.1,0.1-0.2,0.1-0.3c0-0.1,0-0.1,0-0.2s0-0.1,0-0.2c0.4-0.8,0.8-1.3,1.1-1.7c0.3-0.4,0.7-0.6,0.9-0.6
					c0.1,0,0.2,0,0.3,0s0.3,0,0.3,0c0.1,0,0.1,0,0.3,0c0.1,0,0.2,0,0.3,0c0.2,0,0.3,0.1,0.3,0.2c0.1,0.1,0.1,0.2,0.1,0.4
					c0,0.4-0.1,0.8-0.3,1.3c-0.2,0.5-0.3,0.7-0.3,0.8c0,0.1,0,0.1,0.1,0.2c0.1,0,0.1,0,0.2-0.1c0.1,0,0.1-0.1,0.2-0.1
					c0,0.1,0.1,0.3,0.2,0.4c0.1,0.2,0.2,0.3,0.3,0.5c0,0.1,0.1,0.1,0.1,0.2s0,0.1,0,0.1c-0.4,0.4-0.7,0.7-1,0.9s-0.5,0.3-0.7,0.3
					c-0.1,0-0.1,0-0.2,0s-0.2,0-0.3,0c-0.1,0.2-0.3,0.3-0.5,0.5s-0.4,0.4-0.6,0.7c-0.1,0.1-0.2,0.1-0.3,0.3
					c-0.1,0.1-0.3,0.2-0.5,0.4c-0.3,0.3-0.5,0.5-0.8,0.6s-0.5,0.2-0.8,0.2c-0.1,0-0.2,0-0.3,0c-0.1,0-0.2-0.1-0.4-0.2
					c-0.1-0.1-0.2-0.1-0.3-0.2c-0.1-0.1-0.3-0.2-0.4-0.3c-0.2-0.6-0.3-1.1-0.4-1.5c-0.1-0.5-0.1-0.9-0.1-1.3c0-0.1,0-0.1,0-0.2
					s0-0.1-0.1-0.1h-0.1h-0.1l-0.1,0.1c-0.1-0.2-0.2-0.4-0.2-0.6C99.2,18.3,99.1,18.1,98.9,17.9z M105.3,6.8L105.3,6.8
					c0-0.1,0-0.2-0.1-0.2s-0.1,0.1-0.2,0.2s-0.1,0.3-0.2,0.6c0,0.2-0.1,0.4-0.2,0.6s-0.3,0.5-0.5,0.9c-0.2,0.3-0.3,0.6-0.5,1
					s-0.3,0.7-0.5,1.2s-0.4,0.9-0.5,1.3c-0.1,0.4-0.2,0.7-0.2,0.9v0.1c0.1,0,0.2-0.2,0.4-0.5c0.2-0.3,0.4-0.8,0.7-1.4
					c0.3-0.5,0.4-0.9,0.6-1.2c0.1-0.3,0.2-0.5,0.2-0.6c0.1-0.2,0.2-0.5,0.3-0.9s0.2-0.7,0.3-1.1c0.1-0.2,0.2-0.3,0.2-0.4
					c0.1-0.1,0.1-0.1,0.1-0.2S105.3,6.9,105.3,6.8z"/>
				<path class="st4" d="M107.1,17.9c0.1-0.2,0.3-0.4,0.4-0.6s0.4-0.4,0.7-0.6c0-0.2,0.1-0.4,0.1-0.5c0-0.2,0-0.4,0.1-0.5
					c0-0.1,0.1-0.3,0.1-0.5c0.1-0.2,0.1-0.4,0.2-0.6c0.1-0.2,0.2-0.5,0.3-0.8c0.1-0.3,0.3-0.6,0.6-1c0.2-0.2,0.4-0.4,0.6-0.7
					s0.4-0.5,0.6-0.8c0.1-0.1,0.2-0.2,0.3-0.2s0.2-0.2,0.4-0.2c0.1,0,0.2-0.1,0.4-0.1c0.1,0,0.3,0,0.5,0s0.4,0,0.6,0.1
					c0.1,0,0.3,0.1,0.3,0.2c0.1,0.1,0.1,0.2,0.2,0.3s0.1,0.3,0.2,0.5c0,0.2,0.1,0.4,0.1,0.6c0-0.1,0,0,0,0.1s-0.1,0.3-0.1,0.5
					l-0.1,0.4c-0.1,0.4-0.4,0.9-0.9,1.5c-0.4,0.6-1,1.2-1.8,2c-0.1,0.1-0.1,0.1-0.2,0.2c0,0.1-0.1,0.2-0.1,0.3c0,0.2,0,0.4,0.1,0.5
					s0.2,0.3,0.3,0.3c0.1,0.1,0.2,0.1,0.3,0.2c0.2,0.1,0.3,0.1,0.6,0.1c0.4,0,0.7-0.1,1-0.2s0.5-0.2,0.8-0.3c0,0,0.1-0.1,0.2-0.1
					s0.2-0.1,0.3-0.2c0.1,0.3,0.2,0.5,0.3,0.7c0.1,0.2,0.2,0.4,0.2,0.5c-0.5,0.5-1,0.9-1.4,1.2c-0.4,0.3-0.8,0.4-1.2,0.4
					c-0.1,0.1-0.3,0.2-0.5,0.2S111,21,110.8,21c-0.3,0-0.6-0.1-0.9-0.2s-0.5-0.2-0.6-0.4c-0.1-0.1-0.2-0.2-0.3-0.4
					c-0.1-0.2-0.2-0.4-0.3-0.6c-0.1-0.2-0.2-0.3-0.2-0.4c-0.1-0.1-0.2-0.1-0.2-0.1c-0.1,0-0.2,0-0.2,0.1s-0.2,0.2-0.3,0.3
					c0-0.1-0.1-0.3-0.2-0.5C107.4,18.5,107.2,18.2,107.1,17.9z M111.5,13.5c-0.2,0-0.5,0.3-0.8,0.8s-0.5,0.9-0.5,1.2
					c0,0.1,0,0.1,0,0.1h0.1c0.1,0,0.2-0.1,0.2-0.2s0.1-0.2,0.2-0.3s0.2-0.2,0.3-0.3s0.2-0.2,0.3-0.3c0.1-0.1,0.2-0.3,0.2-0.4
					s0.1-0.3,0.1-0.4C111.6,13.6,111.6,13.6,111.5,13.5C111.6,13.5,111.5,13.5,111.5,13.5z"/>
			</g>
		</g>
	</g>
	<g id="圖層_3" class="st0">
		<g class="st2">
			<path class="st5" d="M55.1,14.3c-0.7,0.2-1.5,0.4-2.2,0.6v4.5c0,1.1-0.2,1.6-0.8,2s-1.5,0.4-2.9,0.4c-0.1-0.6-0.4-1.5-0.6-2
				c0.7,0,1.5,0,1.8,0s0.4-0.1,0.4-0.4v-3.9L48.5,16L48,13.8c0.8-0.1,1.7-0.3,2.6-0.6V9.9h-2.3V7.8h2.3V4.2h2.2v3.6h2v2.1h-2v2.8
				l1.9-0.5L55.1,14.3z M64,19.7c0.1,0,0.2,0,0.3-0.1c0.1-0.1,0.1-0.2,0.1-0.6c0-0.3,0-1.2,0.1-2.2c0.4,0.4,1.1,0.7,1.6,0.9
				c0,1-0.1,2.2-0.2,2.7s-0.3,0.8-0.6,1c-0.3,0.2-0.8,0.3-1.2,0.3h-1c-0.5,0-1-0.2-1.3-0.5c-0.3-0.4-0.5-0.8-0.5-2.2v-6h-2.6v1.3
				c0,2.5-0.6,5.8-3.7,7.7c-0.3-0.5-1.1-1.4-1.5-1.7c2.7-1.6,3-4,3-6v-3.4h7v8c0,0.4,0,0.6,0.1,0.7s0.1,0.1,0.2,0.1
				C63.8,19.7,64,19.7,64,19.7z M65.9,9.4H55.2V7.3h3.9c-0.2-0.8-0.6-1.9-1-2.7L60.3,4c0.4,0.8,0.9,2,1.1,2.7l-1.8,0.5h6.3V9.4z"/>
			<path class="st5" d="M72.1,11.9c0,0.3,0,0.7,0,1.1c2-0.6,2.2-1.4,2.2-2.3V9h7.2v2.4c0,0.5,0,0.7,0.3,0.7h1c0.3,0,0.8,0,1.1-0.2
				c0,0.6,0.1,1.5,0.2,2C83.8,14,83.3,14,82.9,14h-1.2c-1.9,0-2.4-0.8-2.4-2.7v-0.5h-3c0,1.4-0.5,2.7-2.4,3.6h7.4l0.4-0.1l1.3,0.6
				c-0.7,1.8-1.8,3.2-3.1,4.2c1.3,0.4,2.8,0.6,4.4,0.7c-0.4,0.5-1,1.4-1.2,2c-2.2-0.2-4-0.7-5.5-1.3c-1.5,0.6-3.2,1.1-5.1,1.4
				c-0.2-0.6-0.6-1.4-0.9-1.9c1.4-0.2,2.8-0.4,4-0.8c-0.9-0.7-1.6-1.6-2.2-2.7l0.6-0.2h-1v-1.9h0.2c-0.3-0.4-0.7-1-1.1-1.3
				c-0.1,2.9-0.6,6.5-2.6,8.8c-0.4-0.4-1.3-1-1.9-1.3c1.2-1.4,1.8-3.2,2.1-5c-0.7,0.5-1.4,0.9-2.1,1.3L67,14.8
				c0.8-0.3,1.8-0.9,2.9-1.5c0-0.5,0-1,0-1.5v-0.6l-1.4,0.6c-0.3-0.9-1-2.3-1.6-3.4l1.8-0.8c0.4,0.6,0.8,1.4,1.2,2.1V6.1h6.5
				C76.2,5.6,76,5,75.8,4.6L78,4.1c0.3,0.6,0.7,1.4,0.9,2.1h5.7v2.1H72.1V11.9z M75.5,16.3c0.5,0.8,1.3,1.4,2.2,2
				c0.9-0.5,1.7-1.2,2.3-2H75.5z"/>
		</g>
		<g class="st2">
			<g>
				<path class="st5" d="M91.1,7.8h-3.2V5.3h9.6v2.6h-3.2v12.9h-3.1v-13C91.2,7.8,91.1,7.8,91.1,7.8z"/>
				<path class="st5" d="M98.9,18.2h2.6V7.8h-2.6V5.3h8.3v2.6h-2.6v10.3h2.6v2.5h-8.3V18.2z"/>
				<path class="st5" d="M109.2,5.3h3.8c3.1,0,5.2,1.2,5.2,4.8c0,3.5-2.1,5.1-5.2,5.1h-0.7v5.5h-3.1C109.2,20.7,109.2,5.3,109.2,5.3
					z M112.8,12.8c1.7,0,2.4-0.9,2.4-2.7s-0.7-2.4-2.4-2.4h-0.5v5.1H112.8z"/>
				<path class="st5" d="M119.3,18.7l1.9-2.1c0.8,1,1.7,1.6,2.6,1.6s1.4-0.5,1.4-1.3c0-1.1-0.5-1.9-1.7-2.6l-1.3-0.9
					c-1.3-0.9-2.5-2-2.5-4.2c0-2.4,1.8-4.2,4.4-4.2c1.5,0,2.8,0.7,4,2l-1.6,1.9c-0.9-0.8-1.5-1.3-2.4-1.3c-0.7,0-1.3,0.5-1.3,1.4
					c0,1,0.5,1.4,1.9,2.4l1.2,0.9c1.4,1,2.4,2,2.4,4.2c0,2.4-1.8,4.4-4.6,4.4C122.1,21,120.6,20.2,119.3,18.7z"/>
			</g>
		</g>
	</g>
	<g id="圖層_2" class="st0">
		<g class="st2">
			<path class="st5" d="M52.2-27.1c0-3.6-2.8-6.6-6.4-6.9v-1c0-0.3-0.2-0.5-0.5-0.6c-0.1,0-1-0.1-2.2-0.3c-0.1,0-0.1,0-0.2,0h-0.1
				c-3-0.4-8-0.9-11-0.9s-8,0.5-11,0.9h-0.1c-0.1,0-0.2,0-0.2,0c-1.3,0.2-2.1,0.3-2.2,0.3c-0.3,0-0.5,0.3-0.5,0.6v1
				c-3.6,0.3-6.4,3.3-6.4,6.9s2.8,6.6,6.4,6.9v1c0,0.2,0.1,0.4,0.4,0.5c0.1,0,0.9,0.4,2.2,0.9c0.1,0.1,0.3,0.2,0.4,0.2h0.1
				c2.9,1.1,7.5,2.5,11.1,2.5c5.4,0,13.4-3.4,13.8-3.6c0.2-0.1,0.4-0.3,0.4-0.5v-1C49.4-20.5,52.2-23.5,52.2-27.1z M12.3-27.1
				c0-3,2.3-5.5,5.2-5.8v11.5C14.6-21.7,12.3-24.1,12.3-27.1z M45.8-21.4v-11.5c2.9,0.3,5.2,2.8,5.2,5.8S48.7-21.7,45.8-21.4z"/>
			<g>
				<path class="st6" d="M42.9-21.2v1.5c0,0.3,0.3,0.6,0.6,0.6s0.6-0.3,0.6-0.6V-22l0,0v-12.5l-1.3-0.2v3.4H20.2v1.3h22.7v3.1
					c-1.8,0.3-7.9,1.1-11.4,1.1s-9.5-0.8-11.4-1.1v1.3c2,0.3,7.9,1.1,11.4,1.1s9.3-0.8,11.4-1.1v3.1c-1.7,0.5-7.9,2.1-11.4,2.1
					c-3.4,0-9.6-1.7-11.4-2.1v1.3c2.1,0.6,7.9,2.1,11.4,2.1C35-19.1,40.8-20.6,42.9-21.2z"/>
				<path class="st6" d="M20.5-21.2v1.5c0,0.3-0.3,0.6-0.6,0.6c-0.3,0-0.6-0.3-0.6-0.6V-22l0,0v-12.5l1.3-0.2v3.4h22.7v1.3H20.5v3.1
					c1.8,0.3,7.9,1.1,11.4,1.1s9.5-0.8,11.4-1.1v1.3c-2,0.3-7.9,1.1-11.4,1.1s-9.3-0.8-11.4-1.1v3.1c1.7,0.5,7.9,2.1,11.4,2.1
					c3.4,0,9.6-1.7,11.4-2.1v1.3c-2.1,0.6-7.9,2.1-11.4,2.1C28.4-19.1,22.6-20.6,20.5-21.2z"/>
			</g>
		</g>
	</g>
</g>
<g>
	<g>
		<path class="st7" d="M39.1,13.6c-0.6,0.1-1.2,0.2-1.8,0.2c-0.1,0.4-0.2,0.6-0.4,0.6c-0.3,0-0.4-0.3-0.8-2.1c0.3,0,0.6,0,0.7,0
			c0.2,0,0.5,0,0.7,0c0.1,0,0.2,0,0.3,0c0.4-0.6,0.7-1.3,1-1.9C37.9,9.4,37,8.7,36,8.1l1-1.2c0.2,0.2,0.5,0.3,0.7,0.5
			c0.5-1,0.8-1.8,1.1-2.6c0.1-0.4,0.2-0.6,0.3-1.2c1.7,0.7,2,0.9,2,1.2c0,0.2-0.1,0.3-0.6,0.4c-0.5,1-1,2-1.6,3
			c0.3,0.2,0.6,0.5,0.8,0.6c0.4-0.7,0.6-1.4,0.9-1.8c0.1-0.4,0.2-0.6,0.3-1c1.7,0.8,1.9,0.9,1.9,1.2c0,0.2-0.2,0.3-0.7,0.3
			c-0.7,1.5-1.7,3-2.7,4.6c0.6-0.1,1.2-0.1,1.7-0.2c-0.1-0.4-0.3-0.6-0.5-1l1.2-0.5c0.5,0.9,0.8,1.9,1.1,3l-1.3,0.5
			c-0.1-0.3-0.1-0.6-0.2-0.8c-0.4,0.1-0.6,0.1-1,0.2V18l0.1,3h-1.7l0.1-3L39.1,13.6L39.1,13.6z M38.9,15.2c0,0.2-0.1,0.3-0.5,0.4
			c-0.2,1.4-0.5,2.8-0.9,4.3c-0.5-0.3-0.8-0.6-1.3-0.6c0.5-1.3,0.6-2.3,0.8-3.4c0.1-0.5,0.1-0.8,0.1-1.3
			C38.7,14.9,38.9,15,38.9,15.2z M42.2,14.3c0.4,1.3,0.7,2.7,0.9,4l-1.4,0.5c-0.2-1.5-0.5-2.8-0.8-4.1L42.2,14.3z M53.3,19.4
			c0,1.2-0.6,1.7-2.1,1.7h-1c-0.2-0.6-0.4-1.1-0.7-1.8c0.8,0.1,1.5,0.2,1.8,0.2c0.4,0,0.4-0.1,0.4-0.6V6h-6.8v15.2h-1.7l0.1-3V7
			l-0.1-2.4l0.1-0.1l2.4,0.1h5.1l2.4-0.1l0.1,0.1L53.2,7v9.9L53.3,19.4z M49,12.9h0.2l2.1-0.1v1.4h-2.1h-1.6v2.1
			c0,0.6,0.1,0.6,0.8,0.6c0.8,0,1.7-0.1,2.3-0.1v1.5c-0.6,0.1-1.5,0.1-2.4,0.1c-2.1,0-2.3-0.2-2.3-1.6v-2.6h-0.9v-1.4l2.1,0.1h0.2
			v-1.8h-0.1h-2.1V9.7l2.1,0.1h0.7c0.4-0.9,0.6-1.8,0.8-2.5c0.2-0.6,0.2-0.7,0.2-1.1C50.8,6.7,51,6.8,51,7.1c0,0.2-0.2,0.3-0.6,0.3
			c-0.3,0.8-0.6,1.7-0.9,2.4h1.7v1.4h-2.1H49V12.9z M46.9,6.5c0.5,0.7,0.7,1.5,1,2.3l-1.4,0.6c-0.3-0.9-0.6-1.7-1-2.4L46.9,6.5z"/>
		<path class="st7" d="M56.5,16.8c1.7,0.7,1.8,0.8,1.8,1.1c0,0.2-0.2,0.3-0.7,0.3c-0.5,0.9-0.9,1.7-1.7,2.8
			c-0.5-0.4-0.8-0.6-1.4-0.8c0.7-1,1.3-1.9,1.6-2.7C56.3,17.3,56.4,17.1,56.5,16.8h-0.7l-0.1-0.1v-2.6V7V4.6l0.1-0.1l1.8,0.1H59
			l1.8-0.1l0.1,0.1L60.8,7v7.3l0.1,2.6l-0.1,0.1h-0.9c0.6,0.8,1.1,1.6,1.7,2.7l-1.4,0.8c-0.6-1.2-0.9-2-1.6-2.8l1.2-0.6H59h-1.4
			L56.5,16.8z M59.2,8.2V6h-2v2.2H59.2z M57.2,9.5v2.2h2V9.5H57.2z M59.2,13.1h-2v2.3h2V13.1z M67.2,12h1.3l2.4-0.1L71,12l-0.1,2.3
			v2.3h1.7v1.3h-1.7l0.1,1.6c0,1.2-0.6,1.7-2.1,1.7h-1c-0.1-0.6-0.3-1.1-0.6-1.7c0.8,0.1,1.4,0.1,1.8,0.1c0.2,0,0.3-0.1,0.3-0.4
			v-1.3h-5.8V21H62l0.1-3v-0.1h-1.2v-1.4h1.2v-2.3L62,12l0.1-0.1l2.4,0.1h1.2v-1h-2.1l-2.5,0.1V9.7l2.4,0.1H64V8.7l-2,0.1V7.5
			l2.1,0.1V6.5h-0.3l-2.5,0.1V5.2l2.5,0.1H64V5c0-0.5,0-0.6-0.2-1.4c2,0.1,2.3,0.2,2.3,0.6c0,0.2-0.2,0.3-0.6,0.4v0.7h1.7V5
			c0-0.5,0-0.6-0.2-1.4c2,0.1,2.3,0.2,2.3,0.6c0,0.2-0.2,0.3-0.6,0.4v0.7h0.6l2.5-0.1v1.3l-2.5-0.1h-0.6v1.1l2.4-0.1v1.3l-2.2,0v1.1
			h1.4l2.5-0.1v1.4L70.3,11h-3V12z M65.7,13.2h-2.1v1.1h2.1V13.2z M65.7,15.4h-2.1v1.2h2.1V15.4z M65.6,6.5v1.1h1.7V6.5H65.6z
			 M65.6,8.7v1.1h1.7V8.7H65.6z M69.3,14.3v-1.1h-2.2v1.1H69.3z M69.3,16.6v-1.2h-2.2v1.2H69.3z"/>
		<path class="st7" d="M76.6,7.3h-0.2l-2.5,0.1V5.8l2.5,0.1h2.2l2.5-0.1v1.7l-2.5-0.1h-0.4v6.9c0.9-0.3,2-0.6,3-0.8c0,0.6,0,1,0,1.6
			c-1.8,0.6-4.3,1.3-6.4,1.8c0,0.4-0.2,0.6-0.3,0.6c-0.4,0-0.5-0.2-1.2-2.1c1-0.1,1.1-0.1,1.6-0.2c0.5-0.1,0.9-0.2,1.6-0.4L76.6,7.3
			L76.6,7.3z M89.4,9c-0.2,1.7-0.5,3.4-1.2,5.1c-0.3,0.8-0.7,1.6-1.3,2.3c1.1,1.2,2.5,2.1,4.9,3c-0.6,0.5-0.9,1-1.3,1.6
			c-2-1-3.7-2.2-4.7-3.2c-1.4,1.3-3.6,2.8-6.4,3.5c-0.3-0.5-0.6-1-1.2-1.5c2.9-0.8,5.1-1.9,6.5-3.4c-0.6-0.9-1-1.9-1.4-2.8
			c-0.4-1.1-0.6-2.2-0.7-3.3c-0.5,0.7-1,1.6-1.7,2.4c-0.4-0.5-0.6-0.8-1.2-1.1c1.7-2.1,2.8-4.1,3.5-6.2c0.2-0.6,0.3-1,0.5-1.6
			c1.9,0.5,2.2,0.6,2.2,0.9c0,0.2-0.2,0.3-0.7,0.3c-0.3,0.8-0.6,1.7-1,2.5h4.6h2.7v1.7L89.4,9z M84,8.9c0.3,2,0.6,4.2,1.8,6
			c1.1-1.7,1.6-3.9,1.7-6H84z"/>
		<path class="st7" d="M109.1,16.2v2.3l0.1,2.6h-1.7v-1h-3.9v1.1H102l0.1-2.4v-2.6L102,14c-0.3,0.1-0.6,0.3-0.8,0.4
			c-0.3-0.5-0.6-0.8-1-1.2v1.3l0.1,3.2h-1.6v-0.8h-3.9v1.7h-1.5l0.1-3V7.4L93.3,5l0.1-0.1L95.8,5h2l2.3-0.1l0.1,0.1l-0.1,2.4v5.8
			c1.6-0.6,3-1.4,4.3-2.5c-0.6-0.8-1.2-1.7-1.6-2.6c-0.5,0.6-0.9,1-1.4,1.5c-0.4-0.4-0.8-0.6-1.3-0.9c1.3-1.2,2.1-2.4,2.7-3.8
			c0.2-0.6,0.3-0.9,0.4-1.4c1.8,0.6,1.9,0.7,1.9,1c0,0.2-0.2,0.3-0.6,0.3c-0.1,0.3-0.2,0.5-0.3,0.7h3.2l0.6-0.5h0.3
			c1.3,1.1,1.5,1.3,1.5,1.6c0,0.2-0.1,0.3-0.8,0.6c-0.7,1.4-1.5,2.5-2.3,3.5c1,0.7,2.3,1.3,4,1.8c-0.4,0.6-0.6,1-0.9,1.6
			c-0.2-0.1-0.4-0.2-0.6-0.2L109.1,16.2z M96,6.4h-1.2v3.8H96V6.4z M94.8,11.6v3.9H96v-3.9H94.8z M98.7,10.2V6.4h-1.2v3.8H98.7z
			 M97.4,15.4h1.2v-3.9h-1.2V15.4z M109,13.8c-0.7-0.3-1.5-0.6-2.2-1.1c-0.5-0.3-0.8-0.6-1.2-0.9c-0.9,0.8-1.9,1.5-3,2l1.8,0.1h2.6
			L109,13.8z M107.5,15.3h-3.9v3.2h3.9V15.3z M103.8,7c0.5,0.9,0.9,1.9,1.7,2.7c0.7-0.8,1.3-1.7,1.7-2.7H103.8z"/>
	</g>
	<g>
		<g>
			<path class="st7" d="M31,7.5L15.3,7.6l-0.8-4.1C14.5,3.2,14.3,3,14,3l-2.2,0.1c-0.3,0-0.6,0.3-0.6,0.7c0,0.3,0.3,0.6,0.7,0.6
				l1.7-0.1l2.1,11.4c0,0,0,0,0,0.1c0,0,0,0,0,0.1c0,0,0,0,0,0.1l0,0c0,0,0,0,0,0.1l0,0l0,0l0,0l0,0l0,0c0,0,0,0,0.1,0l0,0h0.1l0,0
				h0.1L26.7,16c0.2,0,0.4-0.1,0.5-0.3l4.2-7.3c0.1-0.2,0.1-0.4,0-0.6C31.5,7.6,31.2,7.5,31,7.5z M15.8,10.1l-0.2-1.3h3.1v1.3H15.8z
				 M16,11.1h2.7v1.7h-2.5L16,11.1z M16.6,14.9l-0.2-1.3h2.3v1.3H16.6z M19.6,8.9h4.9l-0.4,1.3h-4.5V8.9z M22.8,14.9h-3v-1.3h3.4
				L22.8,14.9z M19.7,12.7V11h4.2l-0.5,1.7H19.7z M26.5,14.8h-2.7l0.4-1.3h3.1L26.5,14.8z M27.8,12.6h-3.3l0.5-1.7h3.8L27.8,12.6z
				 M29.2,10L29.2,10h-4l0.4-1.3H30L29.2,10z"/>
			<path class="st7" d="M23.8,16.9c-1.2,0-2.1,1-2.1,2.2c0,1.2,1,2.1,2.1,2.1c1.2,0,2.1-1,2.1-2.2C26,17.8,25,16.9,23.8,16.9z
				 M23.9,19.8c-0.5,0-0.9-0.4-0.9-0.9c0-0.5,0.4-0.9,0.9-0.9s0.9,0.4,0.9,0.9S24.4,19.8,23.9,19.8z"/>
			<path class="st7" d="M17.7,16.9c-1.2,0-2.1,1-2.1,2.2c0,1.2,1,2.1,2.1,2.1c1.2,0,2.1-1,2.1-2.2C19.7,17.9,18.9,16.9,17.7,16.9z
				 M17.7,19.9c-0.5,0-0.9-0.4-0.9-0.9s0.4-0.9,0.9-0.9s0.9,0.4,0.9,0.9S18.2,19.9,17.7,19.9z"/>
		</g>
		<g>
			<polygon class="st7" points="5,8.1 12.5,8.9 12.5,8 			"/>
			<polygon class="st7" points="6.1,9.8 12.5,10.6 12.5,9.8 			"/>
			<polygon class="st7" points="7.1,11.6 12.5,12.4 12.5,11.6 			"/>
		</g>
	</g>
</g>
</svg>
