<?xml version="1.0" encoding="utf-8"?>
<!-- Generator: Adobe Illustrator 21.0.2, SVG Export Plug-In . SVG Version: 6.00 Build 0)  -->
<svg version="1.1" id="Layer_1" xmlns="http://www.w3.org/2000/svg" xmlns:xlink="http://www.w3.org/1999/xlink" x="0px" y="0px"
	 viewBox="0 0 313.9 93" style="enable-background:new 0 0 313.9 93;" xml:space="preserve">
<style type="text/css">
	.st0{fill:#FFFFFF;}
	.st1{fill:#EA5C81;}
</style>
<g>
	<path class="st0" d="M45.7,0C20.5,0,0,20.4,0,45.6s20.5,45.6,45.7,45.6c21.6,0,39.7-14.9,44.5-35l0,0c3-14,9.4-28.5,19.2-41.9
		c3.8-5.2,7.9-9.9,12.3-14.2L45.7,0L45.7,0z"/>
	<path class="st0" d="M146.8,66.4c0,3.7-1.4,7-4.1,9.7c-2.7,2.7-5.9,4-9.7,4h-25.5v-48h24.3c3.7,0,7,1.4,9.7,4.1
		c2.7,2.7,4.1,6,4.1,9.7c0,4.2-1.7,7.5-5,9.9C144.7,58.2,146.8,61.8,146.8,66.4 M138.5,45.9c0-1.9-0.7-3.5-2-4.8
		c-1.3-1.4-2.9-2-4.7-2h-17.3v13.5h17.3c1.8,0,3.4-0.7,4.7-2C137.9,49.3,138.5,47.8,138.5,45.9 M139.7,66.4c0-1.8-0.7-3.4-2-4.7
		s-2.9-2-4.7-2h-18.5v13.4H133c1.8,0,3.4-0.7,4.7-2C139,69.8,139.7,68.2,139.7,66.4"/>
	<g>
		<g>
			<path class="st0" d="M218.1,80.5v-4.4c-3.5,3.3-7.6,4.9-12.4,4.9c-5.1,0-9.4-1.9-13-5.6c-3.5-3.7-5.3-8.1-5.3-13.2
				c0-5.2,1.8-9.6,5.5-13.3c3.7-3.7,8.2-5.5,13.4-5.5s9.6,1.9,13.3,5.5c3.7,3.7,5.6,8.2,5.6,13.3v18.2L218.1,80.5L218.1,80.5z
				 M218.1,62.3c0-3.2-1.2-5.9-3.5-8.3c-2.3-2.3-5.1-3.5-8.3-3.5s-6,1.1-8.3,3.5c-2.3,2.3-3.5,5.1-3.5,8.3c0,3.3,1.2,6,3.5,8.3
				c2.3,2.3,5.1,3.5,8.3,3.5s6-1.2,8.3-3.5C217,68.3,218.1,65.5,218.1,62.3"/>
			<polygon class="st0" points="273.2,51.1 273.2,80.5 266.1,80.5 266.1,51.1 260.2,51.1 260.2,44 266.1,44 266.1,32.2 273.2,32.2 
				273.2,44 279.1,44 279.1,51.1 			"/>
			<path class="st0" d="M253.4,76.3c-3.2,3.2-6.9,4.8-11.1,4.8c-4.2,0-7.9-1.6-11.1-4.8c-3.2-3.2-4.8-6.9-4.8-11.1V44h7.1v21.2
				c0,2.4,0.9,4.5,2.6,6.2c1.8,1.7,3.8,2.6,6.2,2.6s4.5-0.9,6.2-2.6c1.7-1.8,2.6-3.8,2.6-6.2V44h7.1v21.2
				C258.2,69.4,256.6,73.1,253.4,76.3"/>
			<path class="st0" d="M282.7,92.3v-5.6c1.3,0.4,2.4,0.5,3.4,0.5c1.3,0,2.4-0.2,3.2-0.7c0.8-0.4,1.4-1.1,1.9-1.8
				c0.4-0.6,1-2.1,1.8-4.4c0.1-0.3,0.3-0.8,0.5-1.4L280.3,44h7.2l7.3,20.2c0.9,2.6,1.8,5.2,2.5,8.1c0.7-2.7,1.5-5.4,2.4-8l7.4-20.3
				h6.8l-13.3,35.4c-1.4,3.8-2.5,6.5-3.3,7.9c-1.1,2-2.3,3.4-3.6,4.3c-1.4,0.9-3,1.4-4.8,1.4C287.7,93,284.1,92.8,282.7,92.3"/>
			<g>
				<path class="st0" d="M179.1,62.1C179.1,62.1,179.1,62,179.1,62.1s0,0.1,0,0.3c0,3.2-1.2,6-3.3,8.1l-0.1,0.1
					c-2.2,2.4-5,3.6-8.3,3.6c-2.8,0-5.3-0.9-7.5-2.7l0,0c-1.8-1.5-3.2-3.6-3.9-6l0,0c-0.3-1.1-0.5-2.1-0.5-3c0-3.3,1.1-6,3.4-8.4
					c2.3-2.3,5.1-3.5,8.3-3.5c1.4,0,2.8,0.2,4.1,0.7l0,0c0.2,0,0.6,0.3,0.7,0.3h0.1c0.8,0.4,1.5,0.8,2.2,1.3
					c0.1,0.1,0.3,0.2,0.4,0.3l0,0l0,0l-9.3,6.4l0,0c-0.9,0.6-1.4,1.6-1.4,2.7c0,1.8,1.5,3.2,3.2,3.2c0.7,0,1.4-0.2,1.9-0.6l0,0
					l15.6-9.7c-1.6-3.6-3.9-6.4-7.1-8.6c-3.2-2.1-6.7-3.2-10.5-3.2c-5.2,0-9.7,1.8-13.4,5.6c-3.7,3.7-5.5,8.2-5.5,13.4
					c0,5.3,1.8,9.7,5.5,13.3c3.7,3.6,8.2,5.4,13.4,5.4c5.3,0,9.8-1.7,13.4-5.5c3.6-3.8,5.4-8.3,5.5-13.5H179.1z"/>
			</g>
		</g>
	</g>
	<path class="st1" d="M55.9,17.1v28.4v18.7c0,5.8-3.9,7.4-8.6,7.4c-0.1,0-0.3,0-0.4,0c-6.3-0.1-8.9-3.3-8.9-8.4V45.6V12.2H17.9v33.4
		v16.3c0,16.1,10.7,26.6,29,26.8c0.1,0,0.3,0,0.4,0c3.1,0,6-0.3,8.6-0.9C69.5,84.7,76.7,75,76.7,61.9V45.6V30.3h3.5V17.1H55.9z"/>
</g>
</svg>
