<?xml version="1.0" encoding="utf-8"?>
<!-- Generator: Adobe Illustrator 16.0.3, SVG Export Plug-In . SVG Version: 6.00 Build 0)  -->
<!DOCTYPE svg PUBLIC "-//W3C//DTD SVG 1.1//EN" "http://www.w3.org/Graphics/SVG/1.1/DTD/svg11.dtd">
<svg version="1.1"
     xmlns="http://www.w3.org/2000/svg" xmlns:xlink="http://www.w3.org/1999/xlink"
     xmlns:a="http://ns.adobe.com/AdobeSVGViewerExtensions/3.0/"
     xml:space="preserve"
     x="0px" y="0px" width="432.7px" height="323.6px"
     viewBox="0 0 432.7 323.6" style="enable-background:new 0 0 432.7 323.6;">
<defs>
</defs>
<g>
  <path fill="#fff" d="M162.6,0C72.5,0,0,72.5,0,161.8s72.5,161.8,162.6,161.8c76.9,0,140.6-52.7,158.2-123.7l0,0
    c10.3-49.8,32.9-101,68.1-148.6c13.2-18.3,27.8-35.1,43.9-50.5H162.6V0z"/>
  <path fill="#ea5c81" d="M134.7,43.2v180.9c0,18.3,9.5,30,32.9,30c16.8,0,26.4-5.9,30.8-16.1v73.2c-9.5,2.2-19.8,2.9-30.8,2.9
    c-65.9,0-104-37.3-104-95.2V43.2C63.7,43.2,134.7,43.2,134.7,43.2z"/>
  <path fill="#ea5c81" d="M284.8,60.8h-12.4h-11h-59.3v249.7c44.7-11,70.3-44.7,70.3-91.5V107.6h12.4V60.8z"/>
</g>
</svg>