<?xml version="1.0" encoding="utf-8"?>
<!-- Generator: Adobe Illustrator 21.0.2, SVG Export Plug-In . SVG Version: 6.00 Build 0)  -->
<svg version="1.1" id="Layer_1" xmlns="http://www.w3.org/2000/svg" xmlns:xlink="http://www.w3.org/1999/xlink" x="0px" y="0px"
	 viewBox="0 0 379.6 99.3" style="enable-background:new 0 0 379.6 99.3;" xml:space="preserve">
<style type="text/css">
	.st0{fill:#333132;}
	.st1{fill:#65AD45;}
	.st2{fill:#197CB8;}
	.st3{fill:#E89329;}
	.st4{fill:#DB1B80;}
	.st5{fill:#FFFFFF;}
</style>
<g>
	<polygon class="st0" points="115.8,82.2 115.8,30.1 123.4,30.1 123.4,74.7 149,74.7 149,82.2 	"/>
	<path class="st0" d="M153.5,30.1h7.8v7.6h-7.8V30.1z M153.6,42.8h7.6v39.4h-7.6V42.8z"/>
	<path class="st0" d="M180.3,40.5c-2,1.8-3,4.1-3,6.8v1.9h6.4v7.6h-6.4v25.4h-7.6V56.8h-3.2v-7.6h3.2v-1.9c0-4.7,1.8-8.7,5.4-12.1
		c3.6-3.3,7.7-5,12.5-5.1v7.6C184.7,37.7,182.2,38.6,180.3,40.5"/>
	<path class="st0" d="M255.8,55.8"/>
	<polygon class="st0" points="281.3,50.5 281.3,82.2 273.6,82.2 273.6,50.5 267.3,50.5 267.3,42.8 273.6,42.8 273.6,30.1 
		281.3,30.1 281.3,42.8 287.7,42.8 287.7,50.5 	"/>
	<rect x="329.1" y="30.1" class="st0" width="7.6" height="52.1"/>
	<path class="st0" d="M220.3,62.2L220.3,62.2v0.3c0,3.4-1.4,6.5-3.6,8.8c0,0-0.1,0.1-0.1,0.1c-2.4,2.6-5.4,3.9-9.1,3.9
		c-3.1,0-5.8-1-8.2-2.9l0,0c-2-1.6-3.5-3.9-4.2-6.5v0c-0.4-1.2-0.5-2.3-0.5-3.3c0-3.5,1.3-6.6,3.8-9.1c2.5-2.5,5.5-3.8,9.1-3.8
		c1.6,0,3,0.3,4.5,0.8h0c0.2,0.1,0.7,0.3,0.8,0.3c0,0,0.1,0,0.1,0.1c0.9,0.4,1.7,0.9,2.4,1.4c0.2,0.1,0.3,0.2,0.5,0.4h0l-10.1,6.9
		c-1,0.6-1.6,1.7-1.6,2.9c0,1.9,1.6,3.5,3.5,3.5c0.8,0,1.5-0.3,2.1-0.7h0l17-10.6c-1.7-3.9-4.3-7-7.7-9.3c-3.5-2.3-7.3-3.5-11.4-3.5
		c-5.7,0-10.6,2-14.6,6.1c-4,4-6,8.9-6,14.6c0,5.7,2,10.5,6.1,14.5c4,3.9,8.9,5.9,14.7,5.9c5.8,0,10.7-1.9,14.6-6
		c4-4.1,5.9-9,6-14.7H220.3z"/>
	<path class="st0" d="M372.2,62.2C372.2,62.2,372.2,62.1,372.2,62.2c0,0.1,0,0.1,0,0.3c0,3.4-1.4,6.5-3.6,8.8c0,0-0.1,0.1-0.1,0.1
		c-2.4,2.6-5.4,3.9-9.1,3.9c-3.1,0-5.8-1-8.2-2.9l0.1,0c-2-1.6-3.5-3.9-4.2-6.5v0c-0.4-1.2-0.5-2.3-0.5-3.3c0-3.5,1.3-6.6,3.7-9.1
		c2.5-2.5,5.5-3.8,9.1-3.8c1.6,0,3.1,0.3,4.5,0.8h0c0.1,0.1,0.7,0.3,0.8,0.3c0,0,0.1,0,0.1,0.1c0.8,0.4,1.7,0.9,2.4,1.4
		c0.2,0.1,0.3,0.2,0.5,0.4l-10.1,6.9c-1,0.6-1.6,1.7-1.6,2.9c0,1.9,1.6,3.5,3.5,3.5c0.8,0,1.5-0.3,2.1-0.7l17-10.6
		c-1.7-3.9-4.3-7-7.8-9.3c-3.5-2.3-7.3-3.5-11.5-3.5c-5.7,0-10.6,2-14.6,6.1c-4,4-6,8.9-6,14.6c0,5.7,2,10.5,6,14.5
		c4,3.9,8.9,5.9,14.7,5.9c5.8,0,10.7-1.9,14.6-6c4-4.1,5.9-9,6-14.7H372.2z"/>
	<path class="st0" d="M299.1,96.5c-3.4,0-5.3-0.8-5.3-0.8v-8.2c0,0,1.9,1,4.1,1c2.7,0,5-2.6,6.9-7.8l-14.2-37.5h9.2l9,26.4l9-26.4
		h9.2L312.6,81c-3.3,8.7-5.1,12-8.6,14.2C302.7,96.1,301,96.5,299.1,96.5"/>
	<path class="st0" d="M248.6,82.4c-5.5,0-9.6-1-12.4-3.1c-2.8-2.1-4.3-5.2-4.6-9.3h8.3c0.1,4.4,3,6.6,8.7,6.6c2.5,0,4.5-0.5,5.9-1.5
		c1.4-1,2-2.3,2-3.9c0-1-0.3-1.9-1-2.5c-0.7-0.6-1.6-1.2-2.7-1.6c-1.1-0.4-2.4-0.8-3.8-1.2c-1.4-0.3-2.9-0.7-4.4-1.1
		c-1.5-0.4-2.9-0.9-4.4-1.4c-1.4-0.5-2.7-1.2-3.8-2.1c-1.1-0.8-2-1.9-2.7-3.1c-0.7-1.2-1-2.8-1-4.6c0-1.7,0.3-3.2,1-4.6
		c0.7-1.4,1.7-2.6,3-3.6c1.3-1,2.9-1.8,4.8-2.4c1.9-0.6,4-0.8,6.3-0.8c5.2,0,9.1,0.9,11.8,2.8c2.6,1.9,4,4.6,4.1,8.2h-8.2
		c-0.2-3.5-2.7-5.2-7.4-5.2c-1,0-1.9,0.1-2.8,0.3c-0.9,0.2-1.6,0.5-2.3,0.9c-0.6,0.4-1.1,0.9-1.5,1.5c-0.4,0.6-0.6,1.2-0.6,2
		c0,0.7,0.1,1.2,0.3,1.7c0.2,0.5,0.6,0.9,1.3,1.3c0.7,0.4,1.6,0.8,3,1.2c1.3,0.4,3,0.9,5.2,1.4c2.5,0.6,4.6,1.3,6.4,1.9
		c1.8,0.6,3.3,1.4,4.4,2.3c1.1,0.9,2,1.9,2.5,3.1c0.5,1.2,0.8,2.7,0.8,4.5c0,1.8-0.3,3.4-1,4.9c-0.7,1.5-1.7,2.8-3.1,3.9
		c-1.4,1.1-3,1.9-5,2.6C253.6,82.1,251.3,82.4,248.6,82.4"/>
	<g>
		<g>
			<path class="st1" d="M0,49.6h19.5V13.3h21.8v36.3h9.7V0h-1.3C22.3,0,0,22.2,0,49.6z"/>
			<path class="st2" d="M60.9,49.6V18.7h26.4V33h-3.8v16.6h17.9c3.8-11.5,9.8-23.2,17.8-34.1c4.2-5.7,8.6-10.8,13.4-15.5H51.1v49.6
				H60.9z"/>
			<path class="st3" d="M19.5,67.4V49.6H0v0C0,77,22.3,99.3,49.8,99.3c0.4,0,0.8,0,1.3,0v-2.7C31.2,96.4,19.5,84.9,19.5,67.4z"/>
			<path class="st3" d="M51.1,78V49.6h-9.7v19.3C41.4,74.4,44.3,77.9,51.1,78z"/>
			<path class="st4" d="M51.5,78.1c5.1,0,9.4-1.7,9.4-8V49.6h-9.8V78C51.2,78,51.4,78.1,51.5,78.1z"/>
			<path class="st4" d="M83.5,67.4c0,14.3-7.8,24.9-22.6,28.2c-2.9,0.6-6,1-9.4,1c-0.2,0-0.3,0-0.4,0v2.7
				c23-0.6,42.1-16.6,47.2-38.1h0c0.8-3.8,1.9-7.7,3.1-11.6H83.5V67.4z"/>
		</g>
		<path class="st5" d="M60.9,18.7v30.9V70c0,6.3-4.3,8-9.4,8c-0.2,0-0.3,0-0.4,0c-6.8-0.1-9.7-3.6-9.7-9.1V49.6V13.3H19.5v36.3v17.7
			c0,17.5,11.6,29,31.6,29.2c0.1,0,0.3,0,0.4,0c3.4,0,6.5-0.3,9.4-1c14.8-3.4,22.6-13.9,22.6-28.2V49.6V33h3.8V18.7H60.9z"/>
	</g>
</g>
</svg>
